<svg xmlns="http://www.w3.org/2000/svg" xmlns:xlink="http://www.w3.org/1999/xlink" id="Layer_1" x="0px" y="0px" viewBox="0 0 144 134.9456" style="enable-background:new 0 0 144 134.9456;" xml:space="preserve">
<style type="text/css">
	.st0{fill:#FFFFFF;}
	.st1{fill:#BB8C51;}
</style>
<g>
	<path class="st0" d="M48.2559,122.1604c-0.0586,0.0783-0.1124,0.1662-0.1611,0.2637c-0.049,0.0977-0.0733,0.1903-0.0733,0.2782   v8.9635c0,0.127,0.0243,0.2441,0.0733,0.3515c0.0487,0.1075,0.1025,0.205,0.1611,0.2929c0.0682,0.1075,0.1464,0.205,0.2343,0.2929   h-2.4899c0.1074-0.0879,0.1952-0.1904,0.2637-0.3076c0.0585-0.0975,0.1048-0.2171,0.1391-0.3588   c0.0341-0.1414,0.022-0.2952-0.0366-0.4613l-2.197-5.4484v5.6534c0,0.1369,0.0243,0.2613,0.0733,0.3735   c0.0487,0.1123,0.1025,0.2075,0.1611,0.2856c0.0682,0.0977,0.1464,0.1856,0.2343,0.2636h-2.402   c0.0879-0.078,0.1659-0.1707,0.2343-0.2783c0.0586-0.0878,0.1122-0.1878,0.1611-0.3002c0.0488-0.1121,0.0733-0.2318,0.0733-0.3588   l-0.0147-8.9635c0-0.0682-0.0245-0.1487-0.0732-0.2416c-0.049-0.0927-0.1025-0.1831-0.1611-0.271   c-0.0684-0.1073-0.1417-0.2098-0.2197-0.3075h2.6363c-0.0977,0.0977-0.1808,0.2002-0.249,0.3075   c-0.0585,0.0977-0.1075,0.2028-0.1464,0.3149c-0.0391,0.1124-0.0439,0.227-0.0147,0.3442l2.0945,5.214v-5.3605   c0-0.0879-0.0245-0.1805-0.0733-0.2782c-0.0489-0.0975-0.1025-0.1854-0.1611-0.2637c-0.0684-0.0975-0.1464-0.1904-0.2343-0.2782   h2.402C48.4023,121.97,48.3241,122.063,48.2559,122.1604z"></path>
	<path class="st0" d="M52.3128,122.1311c-0.0586,0.0783-0.1099,0.171-0.1538,0.2783c-0.044,0.1076-0.0659,0.2247-0.0659,0.3515   v8.8756c0,0.1368,0.0219,0.2636,0.0659,0.3808c0.0439,0.1171,0.0952,0.2197,0.1538,0.3075   c0.0682,0.1076,0.1464,0.2003,0.2343,0.2783h-2.4313c0.078-0.0879,0.1513-0.1854,0.2197-0.2929   c0.0586-0.0879,0.1121-0.1854,0.1611-0.2929c0.0487-0.1074,0.0732-0.2245,0.0732-0.3515v-8.8756   c0-0.1073-0.0245-0.2147-0.0732-0.3222c-0.049-0.1073-0.1025-0.2051-0.1611-0.2929c-0.0684-0.1074-0.1417-0.2051-0.2197-0.2929   h2.4313C52.4592,121.9506,52.381,122.0336,52.3128,122.1311z"></path>
	<path class="st0" d="M58.0978,129.3811c-0.0489-0.1172-0.1025-0.2197-0.1611-0.3076c-0.0684-0.1073-0.1416-0.205-0.2197-0.2929   h2.4313c-0.0879,0.0782-0.1661,0.1709-0.2343,0.2782c-0.0586,0.0879-0.1099,0.1881-0.1538,0.3003   c-0.0439,0.1123-0.0659,0.2222-0.0659,0.3295v0.6005c0,0.3222-0.0611,0.6249-0.1831,0.908   c-0.1222,0.2833-0.2881,0.5298-0.4979,0.7396c-0.2101,0.2101-0.454,0.3785-0.7323,0.5053   c-0.2783,0.127-0.5785,0.1904-0.9007,0.1904h-0.4394c-0.3222,0-0.6224-0.0609-0.9007-0.1831   c-0.2783-0.122-0.5224-0.2904-0.7323-0.5053c-0.21-0.2146-0.376-0.4613-0.4979-0.7396c-0.1222-0.2782-0.1831-0.5785-0.1831-0.9007   v-6.2246c0-0.3222,0.0609-0.6247,0.1831-0.908c0.1219-0.2831,0.2879-0.5296,0.4979-0.7396   c0.2099-0.2099,0.454-0.3783,0.7323-0.5053c0.2783-0.1268,0.5785-0.1904,0.9007-0.1904h0.454c0.3222,0,0.6225,0.0636,0.9007,0.1904   c0.2783,0.127,0.52,0.2954,0.725,0.5053c0.205,0.21,0.3684,0.4565,0.4906,0.7396c0.122,0.2833,0.1831,0.5858,0.1831,0.908v0.4394   c0,0.1368,0.0243,0.2636,0.0732,0.3808c0.0488,0.1171,0.1026,0.2197,0.1611,0.3075c0.0682,0.1076,0.1465,0.2003,0.2344,0.2783   h-2.446c0.0879-0.078,0.166-0.1659,0.2344-0.2636c0.0586-0.0781,0.1121-0.1707,0.1611-0.2783   c0.0487-0.1073,0.0732-0.2293,0.0732-0.3661v-0.498c0-0.2245-0.0783-0.4124-0.2343-0.5638   c-0.1563-0.1513-0.3419-0.2271-0.5566-0.2271h-0.454c-0.2247,0-0.4126,0.0758-0.5638,0.2271   c-0.1515,0.1514-0.227,0.3393-0.227,0.5638v6.2246c0,0.2149,0.0755,0.398,0.227,0.5492c0.1512,0.1515,0.3391,0.227,0.5638,0.227   h0.4394c0.2245,0,0.4124-0.0755,0.5638-0.227c0.1513-0.1512,0.2271-0.3391,0.2271-0.5638v-0.5273   C58.1711,129.6252,58.1466,129.4982,58.0978,129.3811z"></path>
	<path class="st0" d="M64.6008,132.6032c0.0975-0.1073,0.1806-0.2147,0.249-0.3222c0.0586-0.0975,0.1098-0.2099,0.1538-0.3369   c0.0439-0.1267,0.056-0.2585,0.0366-0.3954c-0.0197-0.1366-0.0392-0.2757-0.0586-0.4174   c-0.0197-0.1414-0.0391-0.2659-0.0586-0.3735c-0.0197-0.1267-0.0391-0.2537-0.0586-0.3807h-1.948l-0.1611,1.2009   c-0.0196,0.1172-0.0073,0.2368,0.0367,0.3588c0.0439,0.1222,0.0952,0.2321,0.1537,0.3295   c0.0682,0.1172,0.1465,0.2296,0.2344,0.3369h-2.3874c0.0783-0.078,0.1465-0.1611,0.2051-0.249   c0.0489-0.078,0.0952-0.1586,0.1391-0.2416c0.0439-0.0829,0.0755-0.1634,0.0952-0.2417c0.0096-0.0389,0.0316-0.1927,0.0659-0.4613   c0.0341-0.2685,0.0828-0.6126,0.1465-1.0325c0.0633-0.4197,0.1318-0.8934,0.205-1.4207c0.0732-0.5272,0.1487-1.0641,0.227-1.6111   c0.078-0.5467,0.1538-1.0838,0.227-1.6111c0.0732-0.5273,0.1414-0.9982,0.205-1.4133c0.0634-0.4149,0.1122-0.7543,0.1465-1.0179   c0.0341-0.2636,0.0561-0.4101,0.0659-0.4394c0.0195-0.1073,0.0048-0.2171-0.0439-0.3295c-0.049-0.1121-0.1025-0.2172-0.1611-0.3149   c-0.0684-0.1073-0.1465-0.2197-0.2344-0.3368h3.6323c-0.0977,0.1171-0.1808,0.2295-0.249,0.3368   c-0.0586,0.0977-0.1098,0.2028-0.1538,0.3149c-0.0439,0.1124-0.0563,0.2124-0.0366,0.3002c0,0.0197,0.0195,0.1588,0.0586,0.4174   c0.0389,0.2588,0.0879,0.5932,0.1464,1.0033c0.0586,0.41,0.1245,0.8739,0.1978,1.3913c0.0732,0.5176,0.1464,1.0472,0.2196,1.5892   c0.0733,0.5418,0.1465,1.0764,0.2197,1.6038c0.0733,0.5272,0.1415,1.0009,0.2051,1.4206c0.0634,0.4199,0.1146,0.7689,0.1537,1.0472   c0.039,0.2782,0.0634,0.437,0.0733,0.4759c0.0194,0.0879,0.0535,0.1808,0.1025,0.2783c0.0487,0.0977,0.0975,0.1856,0.1465,0.2636   c0.0585,0.0977,0.1267,0.1904,0.205,0.2783H64.6008z M64.6594,128.8977l-0.7616-5.3751l-0.7616,5.3751H64.6594z"></path>
	<path class="st0" d="M71.25,132.6178c0.0196-0.0098,0.0513-0.0341,0.0953-0.0732c0.0438-0.0389,0.0878-0.0927,0.1318-0.1611   c0.0438-0.0682,0.0805-0.1586,0.1099-0.2709c0.0292-0.1122,0.0292-0.2465,0-0.4028l-0.835-2.6217h-0.7908v2.6217   c0,0.0879,0.0219,0.1831,0.0659,0.2856c0.044,0.1025,0.0953,0.2027,0.1539,0.3002c0.0682,0.1076,0.1464,0.2149,0.2342,0.3222   h-2.3873c0.078-0.0974,0.1513-0.2,0.2197-0.3075c0.0586-0.0879,0.1121-0.1781,0.1611-0.271   c0.0488-0.0926,0.0732-0.1732,0.0732-0.2416v-8.9195c0-0.1074-0.0244-0.2172-0.0732-0.3296   c-0.049-0.1121-0.1025-0.2171-0.1611-0.3148c-0.0684-0.1074-0.1417-0.2197-0.2197-0.3369h2.9439   c0.3222,0,0.6225,0.0611,0.9007,0.1831c0.2782,0.1222,0.5222,0.2881,0.7322,0.4979c0.21,0.2101,0.3758,0.454,0.498,0.7323   c0.122,0.2783,0.1831,0.5785,0.1831,0.9007v2.5778c0,0.41-0.1003,0.7885-0.3003,1.135c-0.2002,0.3467-0.4663,0.6224-0.7981,0.8275   c0.1854,0.5469,0.3514,1.0398,0.498,1.4792l0.4978,1.494c0.0488,0.1368,0.1147,0.2588,0.1977,0.3661   c0.083,0.1075,0.1635,0.2002,0.2417,0.2783c0.0976,0.0977,0.1952,0.1807,0.293,0.2489H71.25z M69.9612,127.5795h1.0106   c0.2244,0,0.4123-0.078,0.5639-0.2343c0.1512-0.1561,0.2269-0.3417,0.2269-0.5565v-2.5778c0-0.2245-0.0757-0.4123-0.2269-0.5638   c-0.1516-0.1513-0.3395-0.227-0.5639-0.227h-1.0106V127.5795z"></path>
	<path class="st0" d="M78.3387,132.6032c0.0974-0.1073,0.1806-0.2147,0.249-0.3222c0.0586-0.0975,0.1099-0.2099,0.1537-0.3369   c0.044-0.1267,0.0561-0.2585,0.0367-0.3954c-0.0198-0.1366-0.0392-0.2757-0.0586-0.4174   c-0.0196-0.1414-0.0392-0.2659-0.0586-0.3735c-0.0196-0.1267-0.0392-0.2537-0.0586-0.3807h-1.9479l-0.1612,1.2009   c-0.0196,0.1172-0.0073,0.2368,0.0367,0.3588c0.0438,0.1222,0.0951,0.2321,0.1537,0.3295   c0.0682,0.1172,0.1464,0.2296,0.2344,0.3369h-2.3873c0.0782-0.078,0.1464-0.1611,0.205-0.249   c0.049-0.078,0.0951-0.1586,0.1391-0.2416c0.044-0.0829,0.0755-0.1634,0.0951-0.2417c0.0098-0.0389,0.0317-0.1927,0.0659-0.4613   c0.0342-0.2685,0.083-0.6126,0.1466-1.0325c0.0634-0.4197,0.1318-0.8934,0.205-1.4207c0.0732-0.5272,0.1487-1.0641,0.2271-1.6111   c0.078-0.5467,0.1537-1.0838,0.2269-1.6111c0.0732-0.5273,0.1414-0.9982,0.205-1.4133c0.0634-0.4149,0.1122-0.7543,0.1466-1.0179   c0.034-0.2636,0.0559-0.4101,0.0659-0.4394c0.0194-0.1073,0.0048-0.2171-0.044-0.3295c-0.049-0.1121-0.1026-0.2172-0.1612-0.3149   c-0.0684-0.1073-0.1464-0.2197-0.2342-0.3368h3.6321c-0.0976,0.1171-0.1808,0.2295-0.249,0.3368   c-0.0584,0.0977-0.1097,0.2028-0.1537,0.3149c-0.044,0.1124-0.0563,0.2124-0.0367,0.3002c0,0.0197,0.0196,0.1588,0.0586,0.4174   c0.039,0.2588,0.088,0.5932,0.1466,1.0033c0.0586,0.41,0.1245,0.8739,0.1977,1.3913c0.0732,0.5176,0.1464,1.0472,0.2196,1.5892   c0.0732,0.5418,0.1464,1.0764,0.2198,1.6038c0.0732,0.5272,0.1414,1.0009,0.205,1.4206c0.0634,0.4199,0.1147,0.7689,0.1537,1.0472   c0.039,0.2782,0.0634,0.437,0.0732,0.4759c0.0196,0.0879,0.0536,0.1808,0.1026,0.2783c0.0488,0.0977,0.0974,0.1856,0.1464,0.2636   c0.0586,0.0977,0.1268,0.1904,0.205,0.2783H78.3387z M78.3973,128.8977l-0.7616-5.3751l-0.7616,5.3751H78.3973z"></path>
	<path class="st0" d="M84.6365,127.1402h2.4899v1.4645v1.6844c0,0.3222-0.0611,0.6249-0.1831,0.908   c-0.1222,0.2833-0.288,0.5298-0.498,0.7396c-0.21,0.2101-0.454,0.3785-0.7322,0.5053c-0.2782,0.127-0.5785,0.1904-0.9007,0.1904   h-0.4394c-0.3222,0-0.6225-0.0634-0.9007-0.1904c-0.2782-0.1268-0.5224-0.2952-0.7322-0.5053   c-0.2102-0.2098-0.376-0.4563-0.498-0.7396c-0.1222-0.2831-0.1831-0.5858-0.1831-0.908v-6.21c0-0.3222,0.0609-0.6247,0.1831-0.908   c0.122-0.2831,0.2878-0.5296,0.498-0.7396c0.2098-0.2099,0.454-0.3783,0.7322-0.5053c0.2782-0.1268,0.5785-0.1904,0.9007-0.1904   h0.454c0.3222,0,0.6225,0.0636,0.9007,0.1904c0.2784,0.127,0.5199,0.2954,0.7251,0.5053c0.205,0.21,0.3683,0.4565,0.4905,0.7396   c0.122,0.2833,0.1831,0.5858,0.1831,0.908v0.5419c0,0.1368,0.0242,0.2636,0.0732,0.3808c0.0488,0.1172,0.1026,0.2197,0.1612,0.3076   c0.0682,0.1075,0.1464,0.2002,0.2342,0.2782h-2.4459c0.088-0.078,0.166-0.1659,0.2344-0.2636   c0.0586-0.078,0.1122-0.1707,0.161-0.2783c0.0488-0.1073,0.0734-0.2245,0.0734-0.3515v-0.6151   c0-0.2245-0.0784-0.4174-0.2344-0.5785c-0.1564-0.1611-0.342-0.2416-0.5566-0.2416h-0.454c-0.2246,0-0.4125,0.0805-0.5639,0.2416   c-0.1514,0.1611-0.2269,0.354-0.2269,0.5785v6.21c0,0.2247,0.0755,0.4174,0.2269,0.5785c0.1514,0.1611,0.3393,0.2416,0.5639,0.2416   h0.4394c0.2244,0,0.4123-0.0805,0.5639-0.2416c0.1512-0.1611,0.2269-0.3538,0.2269-0.5785v-1.6697   c-0.1368-0.0096-0.2636,0.005-0.3808,0.0439c-0.117,0.0391-0.2196,0.0806-0.3074,0.1245c-0.088,0.0439-0.1564,0.0879-0.2052,0.1318   c-0.0488,0.0439-0.0732,0.0709-0.0732,0.0806V127.1402z"></path>
	<path class="st0" d="M94.7275,121.8822c-0.0878,0.0782-0.166,0.1709-0.2342,0.2782c-0.0586,0.0879-0.1124,0.1881-0.1612,0.3003   c-0.049,0.1123-0.0732,0.227-0.0732,0.3441v7.4843c0,0.3222-0.0611,0.6224-0.1831,0.9007   c-0.1222,0.2783-0.2855,0.5224-0.4905,0.7323c-0.2052,0.21-0.4467,0.376-0.7251,0.4979c-0.2782,0.1222-0.5785,0.1831-0.9007,0.1831   H91.52c-0.3222,0-0.6248-0.0609-0.908-0.1831c-0.2832-0.1219-0.5297-0.2879-0.7395-0.4979c-0.2102-0.2099-0.376-0.454-0.498-0.7323   c-0.1222-0.2783-0.1831-0.5785-0.1831-0.9007v-7.5721c0-0.1074-0.0244-0.2099-0.0732-0.3076   c-0.049-0.0975-0.1026-0.1854-0.1612-0.2636c-0.0684-0.0975-0.1416-0.1854-0.2196-0.2636h2.4459   c-0.0878,0.0782-0.1662,0.1661-0.2344,0.2636c-0.0584,0.0782-0.1122,0.1661-0.161,0.2636   c-0.049,0.0977-0.0732,0.1954-0.0732,0.2929v7.5868c0,0.2247,0.078,0.4126,0.2342,0.5638c0.1562,0.1515,0.3418,0.227,0.5566,0.227   h0.4394c0.2244,0,0.4123-0.0755,0.5639-0.227c0.1512-0.1512,0.2269-0.3391,0.2269-0.5638v-7.5868   c0-0.078-0.0244-0.1684-0.0732-0.2709c-0.049-0.1025-0.1024-0.1927-0.161-0.271c-0.0684-0.0975-0.1418-0.1904-0.2198-0.2782   H94.7275z"></path>
	<path class="st0" d="M99.414,132.6032c0.0974-0.1073,0.1806-0.2147,0.249-0.3222c0.0586-0.0975,0.1099-0.2099,0.1537-0.3369   c0.044-0.1267,0.0561-0.2585,0.0367-0.3954c-0.0198-0.1366-0.0392-0.2757-0.0586-0.4174   c-0.0196-0.1414-0.0392-0.2659-0.0586-0.3735c-0.0196-0.1267-0.0392-0.2537-0.0586-0.3807h-1.9479l-0.1612,1.2009   c-0.0196,0.1172-0.0073,0.2368,0.0367,0.3588c0.0438,0.1222,0.0951,0.2321,0.1537,0.3295   c0.0682,0.1172,0.1464,0.2296,0.2344,0.3369h-2.3873c0.0782-0.078,0.1464-0.1611,0.205-0.249   c0.049-0.078,0.0951-0.1586,0.1391-0.2416c0.044-0.0829,0.0755-0.1634,0.0951-0.2417c0.0098-0.0389,0.0317-0.1927,0.0659-0.4613   c0.0342-0.2685,0.083-0.6126,0.1466-1.0325c0.0634-0.4197,0.1318-0.8934,0.205-1.4207c0.0732-0.5272,0.1487-1.0641,0.2271-1.6111   c0.078-0.5467,0.1537-1.0838,0.2269-1.6111c0.0732-0.5273,0.1414-0.9982,0.205-1.4133c0.0634-0.4149,0.1122-0.7543,0.1466-1.0179   c0.034-0.2636,0.0559-0.4101,0.0659-0.4394c0.0194-0.1073,0.0048-0.2171-0.044-0.3295c-0.049-0.1121-0.1026-0.2172-0.1612-0.3149   c-0.0684-0.1073-0.1464-0.2197-0.2342-0.3368h3.6321c-0.0976,0.1171-0.1808,0.2295-0.249,0.3368   c-0.0584,0.0977-0.1097,0.2028-0.1537,0.3149c-0.044,0.1124-0.0563,0.2124-0.0367,0.3002c0,0.0197,0.0196,0.1588,0.0586,0.4174   c0.039,0.2588,0.088,0.5932,0.1466,1.0033c0.0586,0.41,0.1245,0.8739,0.1977,1.3913c0.0732,0.5176,0.1464,1.0472,0.2196,1.5892   c0.0732,0.5418,0.1464,1.0764,0.2198,1.6038c0.0732,0.5272,0.1414,1.0009,0.205,1.4206c0.0634,0.4199,0.1147,0.7689,0.1537,1.0472   c0.039,0.2782,0.0634,0.437,0.0732,0.4759c0.0196,0.0879,0.0536,0.1808,0.1026,0.2783c0.0488,0.0977,0.0974,0.1856,0.1464,0.2636   c0.0586,0.0977,0.1268,0.1904,0.205,0.2783H99.414z M99.4726,128.8977l-0.7616-5.3751l-0.7616,5.3751H99.4726z"></path>
</g>
<g>
	<path class="st1" d="M50.7889,113.4136c1.976-0.3893,3.952-0.6645,5.928-0.9431l30.566,0.0095   c1.976,0.2836,3.952,0.5592,5.928,0.9337c-1.976,0.3741-3.952,0.6497-5.928,0.9333l-30.566,0.0095   C54.7409,114.0778,52.7649,113.8026,50.7889,113.4136z"></path>
</g>
<g>
	<g>
		<g>
			<path class="st0" d="M42.9815,104.6153c-0.74,0-0.7974-0.5623-0.7974-0.7346c0-0.2927,0.1403-0.4964,0.253-0.66     c0.1425-0.2067,0.2898-0.4204,0.2898-0.9683V91.2498c0-0.5482-0.1473-0.7619-0.2897-0.9685     c-0.1127-0.1635-0.2531-0.367-0.2531-0.6601c0-0.1723,0.0574-0.7346,0.7974-0.7346h2.4425c0.7401,0,0.7975,0.5623,0.7975,0.7346     c0,0.2928-0.1405,0.4965-0.2533,0.6601c-0.1426,0.2067-0.2899,0.4204-0.2899,0.9685v10.414h6.2822     c0.5482,0,0.762-0.1473,0.9687-0.2898c0.1637-0.1128,0.3674-0.2531,0.6601-0.2531c0.1723,0,0.7346,0.0574,0.7346,0.7973v2.025     c0,0.3044-0.2998,0.672-0.6722,0.672H42.9815z"></path>
		</g>
	</g>
	<g>
		<g>
			<path class="st0" d="M57.5169,104.6153c-0.7401,0-0.7975-0.5623-0.7975-0.7346c0-0.2929,0.1404-0.4966,0.2533-0.6602     c0.1423-0.2066,0.2895-0.4204,0.2895-0.9681V91.2498c0-0.5482-0.1473-0.7619-0.2897-0.9685     c-0.1128-0.1637-0.2531-0.3674-0.2531-0.6601c0-0.1723,0.0574-0.7346,0.7975-0.7346h10.5658     c0.3044,0,0.6723,0.2998,0.6723,0.6722v2.0251c0,0.7398-0.5624,0.7972-0.7347,0.7972c-0.2927,0-0.4963-0.1403-0.66-0.253     c-0.2067-0.1425-0.4205-0.2898-0.9683-0.2898h-6.1783v3.4369h4.8001c0.5482,0,0.7619-0.1472,0.9686-0.2896     c0.1639-0.1129,0.3676-0.2532,0.6601-0.2532c0.1723,0,0.7347,0.0574,0.7347,0.7973v2.4427c0,0.7396-0.5624,0.797-0.7347,0.797     c-0.293,0-0.4965-0.1404-0.6601-0.2532c-0.2067-0.1424-0.4204-0.2896-0.9686-0.2896h-4.8001v3.4372h6.1783     c0.5479,0,0.7615-0.1473,0.9682-0.2897c0.1635-0.1128,0.3672-0.2532,0.6601-0.2532c0.1723,0,0.7347,0.0574,0.7347,0.7973v2.025     c0,0.3044-0.2999,0.672-0.6723,0.672H57.5169z"></path>
		</g>
	</g>
	<g>
		<g>
			<path class="st0" d="M90.2251,104.6153c-0.7401,0-0.7977-0.5623-0.7977-0.7346c0-0.2928,0.1406-0.4965,0.2534-0.6601     c0.1425-0.2067,0.2895-0.4205,0.2895-0.9682V91.2498c0-0.548-0.1472-0.7617-0.2895-0.9685     c-0.1128-0.1636-0.2534-0.3673-0.2534-0.6601c0-0.1723,0.0576-0.7346,0.7977-0.7346h10.9186     c0.3044,0,0.6723,0.2998,0.6723,0.6722v2.0251c0,0.7398-0.5624,0.7972-0.7347,0.7972c-0.2926,0-0.4964-0.1403-0.66-0.253     c-0.2069-0.1426-0.4207-0.2898-0.9684-0.2898h-6.5307v3.6941h4.7999c0.5481,0,0.7619-0.1473,0.9688-0.2897     c0.1636-0.1128,0.3672-0.2531,0.66-0.2531c0.1723,0,0.7347,0.0574,0.7347,0.7973v2.4427c0,0.7396-0.5624,0.797-0.7347,0.797     c-0.293,0-0.4966-0.1404-0.6602-0.2532c-0.2067-0.1423-0.4205-0.2896-0.9686-0.2896h-4.7999v3.7684     c0,0.548,0.1472,0.7615,0.2897,0.9681c0.1128,0.1637,0.2534,0.3675,0.2534,0.6602c0,0.1723-0.0576,0.7346-0.7975,0.7346H90.2251z     "></path>
		</g>
	</g>
	<g>
		<g>
			<path class="st0" d="M83.1353,104.6152c-0.7397,0-0.7971-0.5624-0.7971-0.7347c0-0.2796,0.1306-0.4803,0.2358-0.6415     c0.0218-0.0335,0.0452-0.0692,0.0686-0.1079L82.21,101.4h-6.5189l-0.4328,1.731c0.023,0.0378,0.0458,0.0727,0.067,0.1056     c0.1068,0.1637,0.2374,0.3643,0.2374,0.644c0,0.1723-0.0574,0.7347-0.7971,0.7347h-2.5678c-0.7399,0-0.7975-0.5624-0.7975-0.7347     c0-0.3687,0.2687-0.5824,0.4846-0.7541c0.1143-0.0909,0.232-0.1847,0.3237-0.3009l3.1494-12.4553     c-0.0232-0.0384-0.0462-0.0736-0.068-0.1069c-0.1055-0.1625-0.236-0.3631-0.236-0.6422c0-0.1723,0.0574-0.7347,0.7971-0.7347     h6.1985c0.7397,0,0.7971,0.5624,0.7971,0.7347c0,0.2791-0.1304,0.4797-0.2354,0.6411c-0.022,0.0339-0.0454,0.0695-0.0686,0.108     l3.1495,12.4552c0.0917,0.1161,0.2094,0.2099,0.3239,0.3009c0.2165,0.1724,0.4846,0.3861,0.4846,0.7542     c0,0.1723-0.0576,0.7347-0.7977,0.7347H83.1353z M81.4953,98.4902l-1.695-6.6518h-1.6996l-1.695,6.6518H81.4953z"></path>
		</g>
	</g>
</g>
<g>
	<g>
		<path class="st0" d="M68.3167,81.331c-0.1529,0-0.2887-0.0974-0.3376-0.2422c-0.049-0.1448-0.0002-0.3048,0.1214-0.3975    c0.0068-0.0052,0.7589-0.5949,0.7589-1.3243v-3.2498l-7.1521-10.0443v13.2953c0,0.7292,0.7527,1.3177,0.7603,1.3235    c0.1208,0.0931,0.1695,0.2531,0.1203,0.3976c-0.0492,0.1444-0.1845,0.2418-0.337,0.2418h-4.3645    c-0.153,0-0.2888-0.0975-0.3377-0.2424c-0.0489-0.1449,0.0001-0.3049,0.1219-0.3976c0.0068-0.0052,0.7595-0.5937,0.7595-1.3229    V62.5247c0-0.7245-0.7521-1.3177-0.7597-1.3235c-0.1216-0.0927-0.1706-0.2527-0.1217-0.3975    c0.0489-0.1449,0.1848-0.2424,0.3377-0.2424h3.785c0.1153,0,0.2235,0.0558,0.2903,0.1497l6.8977,9.6865v-7.8727    c0-0.7289-0.7521-1.3185-0.7597-1.3243c-0.1207-0.0933-0.1691-0.2532-0.1198-0.3975c0.0493-0.1443,0.1844-0.2416,0.3369-0.2416    h4.364c0.1529,0,0.2887,0.0974,0.3376,0.2422c0.0491,0.1448,0.0002,0.3047-0.1214,0.3974    c-0.0068,0.0053-0.7588,0.5949-0.7588,1.3238v16.8422c0,0.7295,0.7522,1.3191,0.7598,1.325    c0.1207,0.0932,0.169,0.2532,0.1198,0.3975c-0.0493,0.1443-0.1844,0.2416-0.3369,0.2416H68.3167z"></path>
	</g>
	<g>
		<g>
			<path class="st0" d="M103.5467,81.331c-0.1703,0-0.3168-0.1203-0.3497-0.2874l-1.3258-6.7121     c-0.1386-0.7016-0.7538-1.0212-1.2667-1.0212h-3.6771v6.0578c0,0.7287,0.7522,1.3178,0.7597,1.3237     c0.1207,0.0932,0.1692,0.2532,0.1199,0.3975c-0.0493,0.1444-0.1844,0.2417-0.3369,0.2417H93.106     c-0.1529,0-0.2887-0.0975-0.3376-0.2423c-0.0491-0.1448-0.0002-0.3048,0.1214-0.3975c0.0068-0.0052,0.7589-0.5943,0.7589-1.3231     V62.5247c-0.0302-0.7222-0.7577-1.3226-0.765-1.3285c-0.1185-0.0944-0.1642-0.2534-0.1141-0.3963     c0.05-0.143,0.1849-0.2387,0.3363-0.2387h7.5037c2.9015,0.0446,5.2578,2.4335,5.2578,5.3255v2.1112     c0,1.4263-0.589,2.7884-1.6281,3.7918c0.4385,0.4968,0.7163,1.0364,0.8276,1.6086l1.1559,5.9409     c0.1459,0.7509,0.6809,1.4003,0.6862,1.4067c0.0884,0.1063,0.1077,0.2544,0.0491,0.3796     c-0.0588,0.1251-0.1844,0.2053-0.3226,0.2053H103.5467z M100.5339,70.2885c1.2632,0,2.2907-1.0275,2.2907-2.2905v-2.1112     c0-1.263-1.0275-2.2905-2.2907-2.2905h-3.6066v6.6923H100.5339z"></path>
		</g>
	</g>
	<g>
		<g>
			<path class="st0" d="M81.9669,81.657c-3.1159,0-5.6509-2.535-5.6509-5.6509V65.8868c0-3.1158,2.535-5.6508,5.6509-5.6508h1.8225     c3.1159,0,5.6511,2.535,5.6511,5.6508v10.1193c0,3.1159-2.5352,5.6509-5.6511,5.6509H81.9669z M81.9669,63.2709     c-1.2632,0-2.2907,1.0275-2.2907,2.2905v10.77c0,1.263,1.0275,2.2905,2.2907,2.2905h1.8225c1.2632,0,2.2909-1.0275,2.2909-2.2905     v-10.77c0-1.263-1.0277-2.2905-2.2909-2.2905H81.9669z"></path>
		</g>
	</g>
	<g>
		<path class="st0" d="M28.7772,81.3322c-3.1159,0-5.6509-2.5352-5.6509-5.6514v-9.4687c0-3.1158,2.535-5.6508,5.6509-5.6508h7.1963    c0.1085,0,0.211,0.0493,0.2787,0.1342c0.0677,0.0848,0.0929,0.1958,0.0688,0.3016c-0.1873,0.8201-0.6935,1.352-1.0231,1.6229    c0.3537,0.7456,0.1326,1.6476,0.1215,1.6911c-0.0311,0.1231-0.1257,0.2202-0.2478,0.2551    c-0.0322,0.0092-0.0651,0.0136-0.0977,0.0136c-0.0911,0-0.1803-0.035-0.2476-0.0998c-0.0092-0.0088-0.9312-0.8843-1.9893-0.8843    h-4.0597c-1.2632,0-2.2909,1.0278-2.2909,2.2911v10.1193c0,1.2634,1.0277,2.2912,2.2909,2.2912h3.5606V72.339    c0-0.7295-0.7523-1.3191-0.7599-1.325c-0.1207-0.0932-0.1691-0.2532-0.1198-0.3975c0.0493-0.1443,0.1844-0.2416,0.3369-0.2416    h4.4731c0.1529,0,0.2887,0.0975,0.3377,0.2423c0.0489,0.1448,0,0.3048-0.1216,0.3975c-0.0068,0.0052-0.7596,0.5948-0.7596,1.3242    l0.0005,7.0297c0.0001,0.7288,0.7526,1.3185,0.7602,1.3243c0.1207,0.0932,0.1691,0.2531,0.1198,0.3975    c-0.0493,0.1443-0.1844,0.2416-0.3369,0.2416H28.7772z"></path>
	</g>
	<g>
		<g>
			<path class="st0" d="M50.7348,81.3316c-0.1425,0-0.2714-0.0849-0.3276-0.2159c-0.0562-0.1309-0.0289-0.2828,0.0692-0.3861     c0.006-0.0064,0.6689-0.7219,0.5079-1.4183l-0.996-4.3081h-5.9863l-0.9976,4.3082c-0.1611,0.6964,0.5012,1.412,0.5079,1.4191     c0.0973,0.1035,0.1241,0.2555,0.0677,0.3859c-0.0565,0.1305-0.1847,0.2152-0.3267,0.2152h-4.3458     c-0.15,0-0.284-0.0939-0.3352-0.235c-0.0511-0.1411-0.0083-0.299,0.1068-0.3951c0.0062-0.0052,0.6798-0.5791,0.8532-1.3259     l3.9174-16.8672c0.1551-0.6679-0.8097-1.2804-0.8195-1.2863c-0.136-0.0834-0.2005-0.2473-0.1572-0.4009     c0.0433-0.1536,0.1831-0.2599,0.3427-0.2599h8.3576c0.1599,0,0.3003,0.1065,0.3433,0.2605     c0.043,0.154-0.0219,0.3179-0.1587,0.4007c-0.0091,0.0056-0.9743,0.618-0.8192,1.2859l3.9186,16.8672     c0.1735,0.7468,0.8466,1.3208,0.8534,1.3265c0.1144,0.0964,0.1568,0.2544,0.1055,0.395     c-0.0514,0.1406-0.1848,0.2345-0.3345,0.2345H50.7348z M49.2895,71.9833l-1.9332-8.3597h-0.7227l-1.9329,8.3597H49.2895z"></path>
		</g>
	</g>
	<g>
		<g>
			<path class="st0" d="M16.9887,81.3316c-0.1512,0-0.286-0.0954-0.3362-0.238c-0.0503-0.1426-0.005-0.3014,0.1129-0.3961     c0.0176-0.015,0.5088-0.4419,0.5088-1.4259c0-2.6888-2.6458-5.3692-6.4793-6.609l-1.5378,6.6487     c-0.1611,0.6964,0.501,1.4113,0.5077,1.4185c0.0973,0.1035,0.1241,0.2555,0.0677,0.386     C9.776,81.2462,9.6479,81.331,9.5057,81.331H5.2396c-0.15,0-0.2841-0.0939-0.3352-0.2351     c-0.0511-0.1411-0.0083-0.2991,0.107-0.3951c0.0061-0.0052,0.6797-0.5785,0.853-1.3245l1.7056-7.3445     c-0.282-0.0191-0.5631-0.0287-0.84-0.0287c-1.0247,0-2.0041,0.129-2.9201,0.3842c0.1469,0.2207,0.2289,0.481,0.2289,0.7533     c0,0.7685-0.6251,1.3938-1.3935,1.3938s-1.3936-0.6253-1.3936-1.3938c0-1.9188,2.7328-3.3657,6.3568-3.3657     c0.1638,0,0.3244,0.0041,0.4833,0.0102l1.6901-7.2765c0.1564-0.6734-0.8089-1.28-0.8187-1.286     c-0.1368-0.0829-0.2016-0.2466-0.1586-0.4007c0.043-0.154,0.1834-0.2605,0.3433-0.2605h8.199     c0.1599,0,0.3003,0.1065,0.3433,0.2605c0.043,0.1541-0.0218,0.3179-0.1586,0.4007c-0.0091,0.0056-0.9738,0.618-0.8186,1.286     l3.9174,16.8678c0.1734,0.7461,0.847,1.32,0.8538,1.3258c0.1146,0.0964,0.157,0.2544,0.1056,0.3951     c-0.0514,0.1406-0.1847,0.2345-0.3345,0.2345H16.9887z M11.3608,70.2158c1.9222,0.4564,3.3443,1.164,4.1518,1.6394     l-1.9106-8.2595h-0.7097L11.3608,70.2158z"></path>
		</g>
	</g>
	<g>
		<g>
			<path class="st0" d="M122.7444,81.3316c-0.15,0-0.284-0.0939-0.3351-0.235c-0.0511-0.1411-0.0084-0.2991,0.1067-0.3951     c0.0062-0.0052,0.68-0.5791,0.8532-1.3252l3.9175-16.8679c0.1564-0.6734-0.8089-1.28-0.8186-1.286     c-0.1368-0.0829-0.2016-0.2466-0.1586-0.4007c0.043-0.154,0.1835-0.2605,0.3433-0.2605h8.1989     c0.1598,0,0.3003,0.1065,0.3433,0.2605c0.043,0.1541-0.0218,0.3179-0.1586,0.4007c-0.009,0.0056-0.9737,0.618-0.8186,1.286     l1.69,7.2765c0.1589-0.006,0.3195-0.0102,0.4834-0.0102c3.624,0,6.3569,1.4469,6.3569,3.3657     c0,0.7685-0.6253,1.3938-1.3937,1.3938c-0.7685,0-1.3936-0.6253-1.3936-1.3938c0-0.2723,0.082-0.5325,0.2289-0.7533     c-0.9158-0.2551-1.8954-0.3842-2.92-0.3842c-0.277,0-0.5581,0.0096-0.8402,0.0287l1.7057,7.3445     c0.1734,0.746,0.8468,1.3193,0.8536,1.325c0.1146,0.0964,0.1571,0.2545,0.1058,0.3952     c-0.0513,0.1407-0.1848,0.2346-0.3345,0.2346h-4.2662c-0.1425,0-0.2713-0.0849-0.3276-0.2159     c-0.0562-0.1309-0.0289-0.2828,0.0692-0.3861c0.006-0.0064,0.6683-0.7213,0.507-1.4176l-1.5378-6.6488     c-3.8335,1.2398-6.4792,3.9202-6.4792,6.609c0,0.984,0.4912,1.4109,0.5121,1.4285c0.1143,0.0967,0.1576,0.2558,0.1062,0.3962     c-0.0514,0.1404-0.1833,0.2353-0.3329,0.2353H122.7444z M128.4873,71.8552c0.8074-0.4753,2.2296-1.183,4.1517-1.6394     l-1.5316-6.6201h-0.7095L128.4873,71.8552z"></path>
		</g>
	</g>
	<g>
		<path class="st0" d="M109.337,81.3c-0.1265,0-0.2435-0.067-0.3074-0.1761c-0.0641-0.1091-0.0654-0.244-0.0037-0.3544l0.8543-1.526    v-1.84c0-0.1204,0.0608-0.2327,0.1617-0.2985c0.059-0.0384,0.1267-0.0579,0.1948-0.0579c0.0487,0,0.0976,0.01,0.1435,0.0302    l2.6996,1.1884h3.3031c0.7154,0,1.2972-0.582,1.2972-1.2972v-2.7321c0-0.5227-0.3109-0.9922-0.7923-1.1961l-5.0176-2.0877    c-1.6096-0.6821-2.6485-2.2487-2.6485-3.9921v-2.0993c0-2.3884,1.943-4.3315,4.3312-4.3315h6.6125    c0.1265,0,0.2435,0.067,0.3074,0.1761c0.0641,0.1091,0.0654,0.244,0.0037,0.3544l-0.8543,1.5259v1.84    c0,0.1204-0.0608,0.2327-0.1617,0.2985c-0.059,0.0384-0.1267,0.0579-0.1948,0.0579c-0.0487,0-0.0976-0.01-0.1435-0.0302    l-2.6998-1.1883h-2.6249c-0.7154,0-1.2972,0.5819-1.2972,1.2972v2.0993c0,0.5232,0.3109,0.9927,0.7921,1.196l5.0178,2.0885    c1.6096,0.682,2.6485,2.2483,2.6485,3.9913v2.7321c0,2.3885-1.943,4.3316-4.3312,4.3316H109.337z"></path>
	</g>
</g>
<g>
	<path d="M118.8988,18.5871c-0.0518-0.028-5.2122-2.8083-7.3881-4.9913c-6.1774-6.1964-14.8522-6.7862-18.853-6.6876   c1.1507-1.0012,2.2465-1.5761,2.2599-1.5832c0.4056-0.2074,0.6619-0.618,0.6696-1.0715c0.0076-0.453-0.2343-0.8718-0.6314-1.0927   c-2.7513-1.5313-6.7692-2.1455-9.5451-0.0665c-1.8044,1.353-3.5073,1.3679-5.8646,1.3888l-0.723,0.0076   c-5.5046,0.0779-8.7621,2.3138-10.1681,3.5789c-0.1702-0.1998-0.3248-0.4139-0.4451-0.6175   c-0.027-0.0478-0.0565-0.0974-0.0747-0.14L68.1275,7.276c-0.0262-0.1243-0.0641-0.2182-0.1031-0.3062   c-0.0627-0.1352-0.1429-0.2584-0.2632-0.3968c-0.2755-0.2975-0.5397-0.4239-0.7811-0.5257   c-0.0363-0.0144-0.0731-0.0277-0.1105-0.0404c-0.1135-0.1509-0.2594-0.2777-0.4296-0.3694   c-0.2577-0.1381-0.9029-0.4744-1.3263-0.6126c-0.5906-0.1905-1.2652-0.1173-1.9398,0.2027   c-0.0845-0.0459-0.1717-0.0874-0.261-0.1246c-0.9482-0.3965-1.7968-0.1759-2.4303,0.0608   c-0.3214,0.1197-0.6008,0.3205-0.8433,0.608c-0.3247-0.0936-0.6497-0.1094-0.9626-0.0437   c-0.7654,0.1588-1.3622,0.4679-1.7822,0.9217c-0.2148-0.0296-0.4233-0.0228-0.6236,0.0193   c-0.7638,0.1615-1.3843,0.6101-1.7721,1.2634c-0.7781-0.0122-1.4111,0.3262-1.708,0.9486c-0.0057,0.0125-0.021,0.047-0.0262,0.0594   c-0.013,0.0318-0.093,0.2307-0.1867,0.5621c-2.5173-0.1609-4.1526-1.1237-4.1637-1.1302c-0.4697-0.2915-1.0751-0.2549-1.5059,0.092   c-0.4552,0.3664-0.8631,0.9755-1.0073,1.6969c-0.1676,0.0038-0.3341,0.0394-0.4891,0.1064   c-0.1923,0.0831-1.1695,0.5529-1.5228,1.663c-0.1717,0.5393-0.2404,1.4035,0.4061,2.4582   c0.1743,0.2847,0.4485,0.4891,0.7735,0.5762c0.0005,0.0003,0.0011,0.0003,0.0016,0.0005c-0.0185,0.016-0.0367,0.0318-0.0543,0.0478   c-0.1143,0.1007-0.2114,0.1908-0.34,0.3295c-0.0059,0.0062-0.0331,0.0375-0.0387,0.044c-0.2069,0.2383-0.3097,0.5426-0.2896,0.855   l0.0037,0.0879c0.0042,0.1205,0.0094,0.2687,0.0477,0.4362c0.0349,0.1989,0.096,0.3746,0.1492,0.5138   c0.0275,0.0752,0.0616,0.1458,0.1135,0.2467c0.0477,0.1018,0.1034,0.1957,0.1855,0.317c0.0455,0.0711,0.0937,0.1406,0.1267,0.1775   l0.1488,0.1835c0.1987,0.2217,0.4281,0.4269,0.6806,0.6088c0.1203,0.0869,0.2435,0.1666,0.3551,0.231   c0.0532,0.0326,0.1085,0.0627,0.1643,0.0928c0.0057,0.003,0.0635,0.0337,0.0693,0.0364c0.0626,0.0318,0.1192,0.0603,0.2025,0.0964   c0.4707,0.2044,1.0184,0.1124,1.4159-0.2554l0.1349-0.1246c0.3953,0.3471,0.7881,0.5165,0.8967,0.5594   c0.4574,0.1786,0.9967,0.0768,1.3555-0.2519c0.4631-0.4201,1.9503-1.5332,3.2525-1.6369c0.0322-0.0024,0.0644-0.0062,0.0961-0.0111   c0.219,0.1433,0.4759,0.2413,0.7593,0.288c0.102,0.5689,0.2887,1.0466,0.4324,1.3554c-0.2508,1.6507-0.9642,4.1211-1.7194,6.7359   c-0.8815,3.0526-1.7931,6.2094-2.1903,8.7748c-0.9941,6.4216,0.0383,9.4794,0.4639,10.403   c0.215,1.2119,0.8827,3.7868,2.7005,4.1277c0.1594,0.0299,0.3501,0.0638,0.5662,0.1012c0.0243,0.0643,0.0624,0.1224,0.097,0.1821   c0.0204,0.1865,0.1155,0.3585,0.2726,0.4693c0.1696,0.1194,1.3847,0.9453,2.5775,0.9453c0.1314,0,0.262-0.0141,0.3915-0.0361   c0.4316,0.1938,1.1772,0.4633,2.0085,0.4633c0.5487,0,1.1317-0.1183,1.6791-0.4552c0.0001,0,0.0003,0,0.0004-0.0003   c0.2293-0.1411,0.4419-0.2893,0.6485-0.4424c0.1957,0.0228,0.3979,0.0339,0.5959,0.0529c0.0053,0,0.0104,0.0027,0.0157,0.0027   c0.0016,0,0.0031-0.0011,0.0047-0.0011c0.8115,0.0765,1.6368,0.1292,2.48,0.1292c7.8478-0.0003,14.8126-3.2266,16.0819-3.8484   l7.36-0.748c0.5883-0.0594,1.0527-0.5282,1.1046-1.1142c0.5995-6.791-2.1063-12.9977-2.222-13.2588   c-0.2119-0.4788-0.7064-0.7719-1.2259-0.7293c-6.1583,0.4812-9.454,2.7274-10.3271,3.4117   c-1.1073-0.2546-2.3086-0.3135-3.4643-0.2331c-0.0742,0.0016-0.1485,0.0008-0.2225,0.0043l0.0008,0.0114   c-1.6295,0.1392-3.1479,0.5553-4.1518,1.1038c-0.9036,0.4937-1.5477,0.9733-2.0454,1.407   c-0.4839-0.0945-0.9477-0.0426-1.142-0.0098c-0.2618-0.158-0.5599-0.2356-0.8589-0.2578c0.1813-1.8152,0.0511-3.7043-0.0796-5.5439   c-0.1315-1.8481-0.2671-3.7583-0.09-5.5719c0.0154-0.0714,0.0251-0.1509,0.0271-0.2388c0.0235-0.2087,0.0492-0.4166,0.0822-0.6229   c0.0162-0.1012,0.0344-0.2036,0.0533-0.3062c0.0334-0.0999,0.0556-0.2122,0.0667-0.3374c0.0627-0.3045,0.134-0.6096,0.2108-0.91   c0.0177-0.0499,0.0322-0.1045,0.0423-0.1642c0.2595-0.9841,0.5662-1.8964,0.7797-2.4932c0.96-0.3781,3.1067-1.3986,4.1706-3.2884   c0.1241,0.1061,0.252,0.2112,0.3832,0.3154c0.1045,0.4782,0.2795,0.9556,0.5226,1.4236c0.0117,0.0244,0.0248,0.0486,0.0393,0.0719   c2.6949,5.0372,12.8517,8.3769,15.7204,8.7504c1.8772,0.2437,5.3925,3.3929,6.5876,4.5847   c0.3461,0.3461,0.9063,0.4535,1.3495,0.2679c0.4647-0.1927,0.7631-0.6405,0.7601-1.1421   c-0.0085-1.2458-0.2534-2.4935-0.7296-3.7268c2.1977,0.7999,5.5629,2.2438,8.8835,4.5215   c0.3254,0.2231,0.7544,0.2755,1.1171,0.1447c0.3736-0.1335,0.6617-0.4397,0.7699-0.8186c0.0128-0.0448,1.071-3.8858-1.2497-7.2831   c0.5716,0.0776,1.0948,0.155,1.59,0.2353c0.4451,0.0681,0.8918-0.0877,1.1973-0.4169c0.5029-0.5439,0.468-1.394-0.0775-1.8947   c-0.189-0.1734-0.3775-0.3401-0.5662-0.5046c1.1256,0.0744,2.2882,0.1118,3.4784,0.1118c4.9779,0,8.8966-0.6405,9.0651-0.6685   c0.5193-0.0888,0.9248-0.4956,1.0091-1.0107C119.6169,19.3509,119.3629,18.836,118.8988,18.5871z M54.5652,16.5284   c-0.0587-0.146-0.1092-0.3045-0.172-0.5309c-0.5961-1.8185-1.093-4.5644-0.3145-6.2884c0.1872-0.0755,0.4439-0.0551,0.6682-0.0166   c-0.597,1.79-0.0057,5.0733,0.5988,6.7568C54.9951,16.5586,54.5672,16.561,54.5652,16.5284z M65.706,37.8952   c0,0,0.908,0.0027,0.9528,0.3197c0.2961,3.077-3.2266,13.3717-7.4864,11.8537c0,0,1.6425-0.8919,2.7056-2.091   C64.3738,45.1626,65.8499,40.5879,65.706,37.8952z M64.895,37.9161c-0.3524,3.7518-1.9843,8.0398-5.0553,10.5083   c-0.7987,0.6419-1.8975,1.4982-3.0039,0.9532c3.949-2.3399,6.6402-7.3081,7.0474-11.636   C64.2749,37.7112,64.9238,37.5679,64.895,37.9161z"></path>
	<g>
		<path class="st1" d="M72.8944,35.6941c1.0463-0.0649,2.1051-0.0035,3.1144,0.31c0.5312,0.1612,1.046,0.3884,1.5232,0.6842    c0.48,0.3113,0.8522,0.672,1.437,1.0354c0.022-0.7073-0.426-1.2697-0.8901-1.7126c-0.1773-0.1718-0.3753-0.32-0.573-0.4682    c0.1658-0.1216,0.4061-0.2836,0.7114-0.4682c0.2648,0.111,0.5256,0.2361,0.7681,0.4074c0.1796,0.1156,0.3483,0.2527,0.5052,0.4055    c0.1576,0.1569,0.2847,0.3197,0.5545,0.4457c0.0779-0.2956-0.0463-0.5255-0.1696-0.7366    c-0.1245-0.2152-0.2698-0.4223-0.4383-0.6134c-0.1193-0.1319-0.2537-0.2519-0.3942-0.3653    c0.2382-0.1213,0.5026-0.2456,0.789-0.3713c0.1206,0.0825,0.2417,0.1661,0.3614,0.2565c0.149,0.1048,0.2961,0.2155,0.4399,0.3322    c0.1436,0.1183,0.2707,0.2451,0.5368,0.279c0.0419-0.2665-0.0693-0.4294-0.1714-0.5941    c-0.1024-0.1658-0.2111-0.3292-0.3265-0.4904c-0.0251-0.0326-0.0555-0.0622-0.0814-0.0945    c0.7867-0.3005,1.7147-0.5895,2.7924-0.8281c0.1355,0.1137,0.2728,0.2424,0.3997,0.4044    c0.0911,0.1067,0.1775,0.2234,0.2564,0.3471c0.0781,0.1268,0.1355,0.253,0.3559,0.3599c0.1567-0.1932,0.1246-0.3613,0.0989-0.523    c-0.0258-0.1642-0.0628-0.3292-0.113-0.4951c-0.0317-0.0909-0.0704-0.1818-0.1139-0.2722c0.213-0.038,0.4385-0.0708,0.6617-0.1045    c0.1109,0.1756,0.2206,0.3561,0.324,0.5461c0.0937,0.1588,0.1829,0.3227,0.2666,0.4904c0.0827,0.1694,0.1468,0.3395,0.3757,0.4826    c0.1481-0.2283,0.1134-0.4253,0.0875-0.6199c-0.0255-0.1962-0.0581-0.3925-0.098-0.5895c-0.0335-0.1406-0.0744-0.2809-0.12-0.4204    c0.2235-0.0263,0.442-0.0551,0.6748-0.076c0.3961,0.9898,1.6556,4.4124,1.9704,8.4993c-0.3141-0.0304-0.6284-0.0505-0.9435-0.0613    c-0.0179-0.1737-0.0316-0.3477-0.0523-0.5208c-0.0905-0.7678-0.2331-1.5302-0.42-2.2812    c-0.203-0.7475-0.4597-1.4841-0.8181-2.1667c0.3241,1.5036,0.4622,2.9983,0.5379,4.5052    c0.0052,0.1506,0.0013,0.3024,0.0051,0.4533c-0.3342,0.0041-0.6677,0.0179-1.0006,0.0421    c-0.0011-0.0079-0.0015-0.0163-0.0026-0.0242c-0.0914-0.7141-0.256-1.4192-0.4629-2.1078    c-0.2233-0.6853-0.5204-1.3484-0.9056-1.949c0.3993,1.369,0.5879,2.7383,0.6692,4.1233c0.0003,0.0068,0.0002,0.0136,0.0005,0.0204    c-0.0288,0.0033-0.0579,0.0041-0.0866,0.0076c-0.3239,0.0418-0.6459,0.0934-0.9662,0.1525    c-0.2207-1.2222-0.6848-2.4183-1.4456-3.3843c0.2147,0.6248,0.4181,1.2303,0.5356,1.8592    c0.1059,0.5545,0.1933,1.1082,0.2385,1.6673c-0.1267,0.0285-0.2548,0.0516-0.3807,0.0825    c-0.2309,0.0565-0.4605,0.1205-0.6881,0.1908c-0.1139-0.4774-0.2753-0.9432-0.4937-1.3804    c-0.2603-0.5586-0.6323-1.0577-1.0403-1.4998c0.2316,0.5613,0.47,1.0954,0.6053,1.664c0.1322,0.4812,0.2252,0.9673,0.2821,1.4575    c-0.1962,0.0882-0.3889,0.1856-0.5721,0.3078c0.2064-0.0065,0.4072-0.0255,0.6058-0.0494    c0.0355,0.3965,0.0369,0.7939,0.0253,1.1904c-0.4076,0.073-0.8129,0.1596-1.2159,0.2562    c-0.0166-0.2068-0.0323-0.4136-0.0617-0.6186c-0.075-0.5721-0.2192-1.1372-0.439-1.6695    c-0.208-0.5363-0.5202-1.0281-0.8718-1.4675c0.1657,0.5436,0.3425,1.0596,0.4259,1.5997    c0.0982,0.5325,0.1702,1.0648,0.1852,1.6008c0.0087,0.2535,0.005,0.5073-0.0054,0.7602c-0.341,0.095-0.6836,0.1848-1.0198,0.2961    c-0.0724,0.0242-0.1413,0.0529-0.2132,0.0776c-0.0055-0.0836-0.0053-0.168-0.0126-0.2513    c-0.0403-0.5355-0.1403-1.0686-0.3049-1.5788c-0.1575-0.5124-0.4041-0.9961-0.6971-1.4336    c0.0975,0.5227,0.208,1.0192,0.2417,1.5283c0.0443,0.5046,0.0754,1.005,0.0582,1.5066c-0.0048,0.1675-0.0194,0.3341-0.0322,0.501    c-0.4083,0.1525-0.8172,0.3034-1.2202,0.4619c-0.0003-0.0155,0.0006-0.0312,0.0002-0.0467    c-0.0139-0.9947-0.2202-2.0071-0.6896-2.8802c0.0264,0.4961,0.068,0.9695,0.0536,1.4464    c-0.0079,0.4744-0.018,0.9434-0.0661,1.4111c-0.012,0.121-0.0305,0.2413-0.0461,0.3621    c-0.0343,0.0133-0.0685,0.0269-0.1028,0.0402c-0.3689,0.143-0.7364,0.2853-1.104,0.4242c0.034-0.8835-0.0628-1.7845-0.3765-2.6132    c-0.0477,0.463-0.0731,0.9081-0.1361,1.3514c-0.0583,0.4419-0.1098,0.8794-0.1875,1.3142    c-0.013,0.0733-0.0293,0.1457-0.0434,0.2188c-0.3847,0.1354-0.7703,0.2644-1.1593,0.374c-0.1106,0.0318-0.224,0.054-0.3352,0.0841    c0.0107-0.0673,0.0243-0.1343,0.0343-0.2017c0.1473-0.9149,0.1561-1.8635-0.0493-2.7698c-0.1111,0.4535-0.19,0.8951-0.3058,1.3307    c-0.107,0.4351-0.2096,0.8669-0.3319,1.2933c-0.0538,0.1875-0.1185,0.3708-0.1782,0.5561    c-0.4678,0.1091-0.9383,0.2049-1.4117,0.2899c0.0275-0.1002,0.0584-0.1998,0.0839-0.3005    c0.0764-0.2828,0.1344-0.5708,0.1829-0.8604c0.4993-0.1626,0.9916-0.3784,1.3671-0.767c-0.4542,0.0901-0.875,0.1935-1.2977,0.2891    c0.0522-0.4853,0.0617-0.9746,0.015-1.4605c-0.1663,0.4438-0.2989,0.8816-0.4624,1.3096    c-0.0323,0.0898-0.0669,0.1772-0.0991,0.2668c-0.4849,0.0855-0.9765,0.1346-1.4693,0.165    c0.0905-0.4516,0.1464-0.9098,0.1544-1.3704c-0.225,0.4739-0.4414,0.9385-0.6587,1.3975    c-0.4289,0.0176-0.8582,0.0212-1.287,0.0125c0.3908-0.8742,0.6814-1.721,0.8955-2.5231c0.3514-0.1327,0.6995-0.2733,1.0457-0.4215    l0.9325-0.4362c0.3083-0.1493,0.6226-0.2923,0.8599-0.6015c-0.3877-0.0453-0.7042,0.0611-1.0306,0.1512l-0.9828,0.2519    c-0.2041,0.0535-0.4062,0.1091-0.6107,0.162c0.232-1.1131,0.32-2.1113,0.3377-2.9378c0.0767-0.4755,0.1744-0.8921,0.3694-1.2925    c0.2278-0.4459,0.5701-0.8275,0.962-1.138c0.5812-0.4758,1.2788-0.7803,2.009-0.9749    C71.8284,35.8089,72.354,35.7334,72.8944,35.6941z"></path>
		<path class="st1" d="M75.5932,46.0507c-0.0156,0.0915-0.0296,0.1835-0.0458,0.2747c-0.0743,0.3746-0.1615,0.7543-0.2541,1.1155    c-0.3302,0.0991-0.6721,0.1965-1.0228,0.2918c0.0317-0.1528,0.0649-0.3051,0.09-0.4606c0.0445-0.2508,0.0738-0.5037,0.0959-0.7575    C74.8387,46.3631,75.2167,46.207,75.5932,46.0507z"></path>
		<path class="st1" d="M83.3246,41.9884c0.0167,0.4009,0.018,0.8018,0.0072,1.2024c-0.2954,0.0299-0.5901,0.067-0.8843,0.1094    c-0.0234-0.3892-0.0653-0.7771-0.1392-1.1589c0.2327-0.0394,0.4647-0.0798,0.6981-0.1148    C83.1122,42.0107,83.2186,42.0022,83.3246,41.9884z"></path>
		<path class="st1" d="M88.4431,42.0128c0.0074,0.7293,0.0077,1.4564,0.0023,2.1824c-0.0045,0.0774-0.005,0.1536-0.0104,0.231    l-0.8538,0.0869c0.0155-0.3987,0.0208-0.7969,0.0145-1.1937c0.2258-0.0087,0.4516-0.0174,0.6778-0.0261    c-0.2256-0.0334-0.4522-0.0605-0.679-0.086c-0.0023-0.1145,0.0002-0.2285-0.0035-0.3433c-0.0076-0.3173-0.0278-0.634-0.05-0.9505    C87.8426,41.9404,88.1432,41.9735,88.4431,42.0128z"></path>
		<path class="st1" d="M82.4627,43.7751c0.2844-0.0497,0.5694-0.0945,0.8553-0.1335c-0.027,0.4413-0.0718,0.8843-0.1278,1.3174    l-0.8135,0.0828c0.054-0.3558,0.0836-0.7084,0.0923-1.0688C82.4711,43.9068,82.4624,43.8411,82.4627,43.7751z"></path>
		<path class="st1" d="M84.1706,43.539c0.2821-0.0296,0.5648-0.0556,0.8482-0.0782c-0.0184,0.4427-0.046,0.884-0.0814,1.3207    l-0.8338,0.0847c0.0465-0.4221,0.0684-0.8395,0.0694-1.264C84.1732,43.5811,84.1705,43.5599,84.1706,43.539z"></path>
		<path class="st1" d="M85.8785,43.4014c0.2814-0.0168,0.5634-0.0315,0.8458-0.0445c-0.0084,0.4172-0.0218,0.833-0.0393,1.2471    l-0.8506,0.0866C85.8655,44.2599,85.882,43.831,85.8785,43.4014z"></path>
		<path class="st1" d="M86.7314,43.1297c-0.2853-0.019-0.5711-0.0328-0.8572-0.0396c-0.0075-0.4199-0.036-0.8387-0.077-1.2569    c0.3108,0,0.621,0.0084,0.9308,0.0233C86.7318,42.2818,86.7382,42.7052,86.7314,43.1297z"></path>
		<path class="st1" d="M85.0318,43.0879c-0.2923,0.0052-0.5847,0.0179-0.8769,0.0358c-0.0149-0.4079-0.0492-0.8145-0.105-1.2189    c0.3118-0.0271,0.624-0.0475,0.936-0.0581c0.0158-0.0008,0.0316-0.0003,0.0474-0.0008    C85.0398,42.2601,85.0397,42.674,85.0318,43.0879z"></path>
		<path class="st1" d="M81.4503,45.136l-0.2348,0.0236c-0.0565,0.0057-0.1113,0.0223-0.1615,0.0486    c-0.0144,0.0076-0.253,0.1308-0.681,0.3284c0.0328-0.2426,0.0564-0.4853,0.0695-0.7325c0.012-0.1922,0.0049-0.3846,0.0017-0.577    c0.3878-0.1067,0.7801-0.1973,1.1738-0.2815C81.5844,44.3445,81.5236,44.7473,81.4503,45.136z"></path>
		<path class="st1" d="M79.5949,44.7367c-0.0488,0.415-0.1228,0.8357-0.2094,1.2352c-0.3161,0.1335-0.6756,0.279-1.0684,0.4313    c0.0442-0.2559,0.0762-0.5111,0.0983-0.7716c0.0238-0.2475,0.0311-0.4959,0.0307-0.7442c0.1262-0.0483,0.2521-0.1029,0.3784-0.149    c0.2596-0.0939,0.5257-0.1691,0.7889-0.2532C79.6063,44.569,79.6031,44.6531,79.5949,44.7367z"></path>
		<path class="st1" d="M77.5706,45.535c-0.0648,0.4163-0.1499,0.8403-0.2459,1.2376c-0.3309,0.1183-0.6787,0.238-1.0443,0.358    c0.0437-0.2242,0.08-0.4478,0.1075-0.6761c0.0339-0.2524,0.0533-0.5065,0.0629-0.761c0.3858-0.1618,0.7717-0.3192,1.1572-0.4766    C77.5951,45.323,77.5849,45.4294,77.5706,45.535z"></path>
		<path class="st1" d="M73.5267,47.1065c-0.0724,0.2931-0.1498,0.5882-0.2283,0.8775c-0.4796,0.1175-0.9741,0.2285-1.4819,0.3314    c0.0746-0.2177,0.1399-0.4362,0.1994-0.6595c0.0334-0.1164,0.0567-0.2356,0.0845-0.3534c0.2356-0.066,0.4733-0.1229,0.7073-0.1962    c0.262-0.0812,0.5207-0.1685,0.7769-0.2603C73.5652,46.9325,73.5462,47.0196,73.5267,47.1065z"></path>
		<path class="st1" d="M70.7906,48.5089c-0.4589,0.079-0.9277,0.149-1.403,0.2109c0.105-0.2234,0.1998-0.4484,0.2881-0.6799    c0.0231-0.0578,0.0401-0.1172,0.0619-0.1753c0.472-0.0901,0.9419-0.19,1.4092-0.3026    C71.031,47.883,70.9111,48.2038,70.7906,48.5089z"></path>
		<path class="st1" d="M67.0605,48.9331c0.0966-0.1669,0.1913-0.3341,0.2792-0.5075c0.0401-0.0765,0.073-0.1563,0.1107-0.234    c0.4313-0.044,0.8604-0.1002,1.2881-0.1653c-0.1357,0.2787-0.2736,0.5548-0.4113,0.814    C67.9097,48.8804,67.4866,48.9103,67.0605,48.9331z"></path>
		<path class="st1" d="M69.4337,46.4735c-0.0887,0.2234-0.1841,0.4435-0.2817,0.6625c-0.4403,0.0665-0.881,0.1289-1.3227,0.1786    c0.0287-0.0755,0.0612-0.1495,0.0886-0.2253c0.0966-0.2549,0.1799-0.5149,0.2546-0.7771c0.481-0.073,0.9577-0.1726,1.4299-0.2931    C69.5459,46.1701,69.4932,46.324,69.4337,46.4735z"></path>
		<path class="st1" d="M67.2743,46.8093c-0.1005,0.196-0.2074,0.3884-0.3161,0.5792c-0.2077,0.0163-0.4153,0.0423-0.623,0.0527    c-0.1927,0.0098-0.3863,0.0147-0.5797,0.0193c0.1555-0.3205,0.2891-0.6508,0.4096-0.9855    c0.4389-0.0095,0.8763-0.0402,1.3125-0.0836C67.4094,46.53,67.3442,46.6716,67.2743,46.8093z"></path>
		<path class="st1" d="M65.0073,48.8142c0.105-0.1593,0.1996-0.3246,0.2943-0.4894c0.3618-0.003,0.7224-0.0133,1.0813-0.0337    c0.0147-0.0008,0.0293-0.0033,0.044-0.0041c-0.1459,0.2353-0.2933,0.4644-0.4415,0.6848c-0.3587,0.006-0.719,0.006-1.0815-0.0027    C64.9384,48.9176,64.9735,48.8668,65.0073,48.8142z"></path>
		<path class="st1" d="M53.1167,44.6586c-0.008-0.0508-0.0263-0.1026-0.0514-0.1476c-0.0146-0.0263-1.4419-2.6927-0.3799-9.5535    c0.3811-2.4617,1.2783-5.5681,2.1459-8.5723c0.3661-1.2675,0.72-2.4984,1.0226-3.6367c0.0873-0.009,0.1715-0.0258,0.2493-0.0527    c0.0788-0.0269,0.1686-0.0518,0.1978-0.2535c-0.094-0.1783-0.1301-0.1951-0.1766-0.2272    c-0.0412-0.032-0.0751-0.0689-0.1032-0.1072c0.0937-0.3672,0.1783-0.7187,0.2561-1.0585    c0.0361,0.0043,0.0718,0.0141,0.1079,0.0174c0.1376,0.0057,0.2738,0.0038,0.408-0.0057c0.1325-0.0084,0.2689-0.0103,0.4045-0.1946    c-0.1081-0.1998-0.2147-0.2299-0.3229-0.2796c-0.1066-0.0505-0.2089-0.1061-0.3064-0.1664    c-0.0483-0.0263-0.0903-0.054-0.1368-0.0817c0.0501-0.247,0.095-0.4853,0.1322-0.7111c0.2067,0.0717,0.4324,0.1175,0.663,0.0966    c0.086-0.0079,0.1635-0.0651,0.1922-0.152c0.0386-0.1167-0.0252-0.2426-0.1426-0.2809l-0.026-0.0084    c-0.1411-0.0464-0.2704-0.1322-0.3884-0.2394c-0.0587-0.0543-0.1145-0.1126-0.1664-0.1745    c-0.0485-0.0589-0.1073-0.1341-0.1305-0.1832c-0.0048-0.01-0.0162-0.0171-0.0218-0.0269    c-0.0598-0.1099-0.1684-0.329-0.2643-0.6205c0.0178-0.0991,0.0241-0.1935,0.0363-0.2901    c0.0274-0.2003,0.0739-0.3952,0.1374-0.5811c0.1002-0.3281,0.2524-0.6262,0.4221-0.9052c0.0837-0.0654,0.172-0.1303,0.2651-0.1957    c-0.0026,0.0195-0.0073,0.0391-0.0096,0.0586c-0.0214,0.2329-0.0243,0.4647-0.0091,0.6932    c0.014,0.2264,0.0334,0.4603,0.2448,0.6598c0.1745-0.2277,0.1919-0.4234,0.2374-0.6245c0.0466-0.1989,0.1087-0.3919,0.1845-0.5765    c0.1084-0.291,0.2513-0.5583,0.4036-0.8164c0.1213-0.0562,0.2498-0.1091,0.3808-0.1612    c-0.0108,0.0418-0.0244,0.0831-0.0336,0.1251c-0.0458,0.2296-0.0772,0.4598-0.0948,0.6894    c-0.0174,0.2277-0.0349,0.4611,0.1374,0.6973c0.2126-0.1984,0.2612-0.3971,0.3353-0.596c0.0759-0.197,0.1628-0.3876,0.2599-0.5705    c0.0949-0.1837,0.1891-0.3645,0.2991-0.5355c0.0256-0.0459,0.0516-0.0871,0.0765-0.1238c0.1036-0.0255,0.2116-0.048,0.32-0.0703    c-0.0035,0.0136-0.0099,0.0263-0.0133,0.0399c-0.0381,0.1789-0.0646,0.3583-0.0798,0.5369    c-0.0159,0.1764-0.035,0.358,0.1329,0.5518c0.2146-0.1362,0.263-0.2817,0.334-0.4269c0.0718-0.1433,0.1518-0.2804,0.2389-0.4104    c0.0926-0.1512,0.1933-0.2934,0.2959-0.4318c0.1654-0.0157,0.3418-0.0212,0.5164-0.0285c-0.2516,0.488-0.34,1.0542-0.2215,1.5582    c0.0138,0.0546,0.0584,0.1015,0.1173,0.1135c0.082,0.0166,0.1619-0.0361,0.1786-0.1178c0.2208-0.998,0.8766-1.67,1.7176-2.0668    c0.388-0.1897,0.8522-0.2334,1.3572-0.2893c0.4974-0.0369,1.0176-0.0575,1.5193-0.0755l0.0561-0.0019    c0.1371-0.006,0.2693-0.0757,0.349-0.1995c0.1304-0.2017,0.0716-0.4706-0.1313-0.6004h-0.0001    c-0.0609-0.0497-0.0849-0.0765-0.1007-0.1547c-0.0154-0.0765-0.0078-0.1976,0.0283-0.3284    c0.0339-0.1305,0.0918-0.2706,0.1602-0.4079c0.067-0.1343,0.1556-0.282,0.2337-0.3927l-0.3355-0.6989h0.0001    c0.0479,0.0043-0.0178-0.0065-0.0362-0.0176c-0.0305-0.0138-0.0635-0.0282-0.0972-0.0499    c-0.0675-0.0404-0.1361-0.0947-0.2022-0.1571c-0.1274-0.1249-0.2615-0.2953-0.3478-0.4595    c-0.1857-0.3311-0.2584-0.7252-0.2404-1.1372c0.0139-0.4117,0.1186-0.837,0.266-1.2488c0.0311-0.0888,0.0922-0.244,0.1007-0.2494    c0.0204-0.0318,0.0389-0.051,0.0746-0.0703c0.0652-0.0415,0.2163-0.0689,0.3714-0.0453c0.0772,0.0098,0.155,0.0323,0.2192,0.0584    c0.0244,0.0087,0.0465,0.0217,0.0642,0.0331c0.0222,0.0953,0.0486,0.1683,0.0762,0.2348    c0.0595,0.1455,0.1247,0.2638,0.1923,0.3808c0.1167,0.1943,0.243,0.3727,0.3737,0.548c-0.0022,0-0.0043,0.0005-0.0065,0.0008    c-0.1145,0.0155-0.2327,0.022-0.3528,0.0182c-0.1218-0.0057-0.2303-0.029-0.4294,0.0877    c0.0313,0.2302,0.1625,0.3018,0.2864,0.3718c0.1255,0.0719,0.259,0.1346,0.3989,0.187c0.2444,0.0798,0.5092,0.1197,0.7734,0.1007    l0.1863,0.174c0.07,0.0611,0.1332,0.1325,0.1941,0.2071c0.1194,0.152,0.2287,0.32,0.3159,0.5094    c0.1833,0.3718,0.2995,0.8007,0.3908,1.2393c0.0922,0.4408,0.1511,0.8981,0.2036,1.3666l0.0195,0.1764l0.0062,0.136    c0.006,0.0896-0.007,0.1856-0.0152,0.2804c-0.0295,0.1919-0.0777,0.3895-0.1541,0.5854    c-0.2974,0.7893-0.8715,1.5213-1.5187,2.1474c-0.3254,0.3102-0.6855,0.6115-1.0474,0.8607    c-0.3553,0.2445-0.7519,0.4386-1.1718,0.5819c-0.8374,0.2929-1.7481,0.4478-2.673,0.5694l-0.017,0.0022    c-0.0724,0.0098-0.1354,0.0616-0.1553,0.1362c-0.0264,0.0988,0.0328,0.2,0.1321,0.2264c0.5768,0.1523,1.1692,0.184,1.7592,0.1327    c-0.0629,0.1631-0.1594,0.4201-0.2751,0.7456c-0.1892,0.0261-0.3788,0.0624-0.567,0.1143    c-0.2859,0.0632-0.5627,0.165-0.863,0.3542c0.2848,0.2169,0.594,0.3051,0.8931,0.3444c0.0838,0.0144,0.1669,0.019,0.2502,0.028    c-0.0729,0.2234-0.148,0.463-0.2228,0.7116c-0.0079,0.0019-0.0161,0.0033-0.0239,0.0054    c-0.1569,0.0296-0.3132,0.0776-0.472,0.1167c-0.3192,0.0719-0.6358,0.165-0.9874,0.3412c0.3194,0.2293,0.6775,0.3279,1.03,0.3566    c0.0712,0.0079,0.1429,0.0141,0.2145,0.0195c-0.0628,0.2342-0.1231,0.4725-0.18,0.7138l-0.5076,0.1327    c-0.3565,0.0722-0.7205,0.1601-1.1196,0.3249c0.3593,0.2397,0.7595,0.3452,1.1638,0.3729    c0.0621,0.0049,0.1252,0.0073,0.1879,0.0106c-0.0844,0.2519-0.1714,0.5029-0.2548,0.7551    c-0.1323,0.0347-0.2638,0.0711-0.4032,0.0999c-0.3977,0.0746-0.8109,0.1531-1.2565,0.3089    c0.2007,0.127,0.4125,0.2093,0.6295,0.2779c0.2178,0.0635,0.441,0.098,0.6684,0.1113c0.0332,0.0024,0.0672,0.0022,0.1006,0.0043    c-0.0857,0.2625-0.1707,0.5255-0.2556,0.7882c-0.1031,0.0258-0.2007,0.0543-0.3087,0.0738    c-0.442,0.0757-0.9049,0.1411-1.3971,0.2918c0.4469,0.253,0.931,0.3819,1.4336,0.4063c0.0071,0.0005,0.0146,0,0.0218,0.0005    c-0.0163,0.051-0.0332,0.1015-0.0494,0.1525l-0.346,1.1087l-0.5792,0.0923c-0.2595,0.048-0.5231,0.0898-0.7977,0.165    c0.249,0.1352,0.51,0.2247,0.777,0.2975c0.1328,0.0328,0.267,0.0586,0.4025,0.0776l-0.2163,0.6929    c-0.0713,0.2236-0.1415,0.4478-0.2095,0.6726l-0.1917,0.028c-0.2863,0.0489-0.5767,0.0863-0.8791,0.1569    c0.2962,0.1482,0.6075,0.2497,0.9261,0.3176c-0.1157,0.4269-0.2127,0.8609-0.2687,1.3098    c0.2498-0.4017,0.4538-0.8199,0.6392-1.245c0.154,0.0193,0.3091,0.0315,0.4647,0.0366c0.1689,0.006,0.3394,0.0068,0.5102,0.0005    c-0.0255,0.0942-0.0499,0.1889-0.0758,0.2831c-0.0807,0.2948-0.173,0.5868-0.2593,0.8799    c-0.1227,0.0242-0.2429,0.0516-0.3673,0.0711c-0.61,0.0839-1.228,0.1547-1.8861,0.2717c0.6043,0.2861,1.2645,0.4106,1.9265,0.4264    c0.0333,0.0011,0.0669-0.0005,0.1003,0.0003c-0.129,0.4169-0.2642,0.8324-0.4007,1.2474    c-0.6316,0.0828-1.2679,0.1498-1.943,0.2513c0.5456,0.2456,1.1333,0.3697,1.726,0.4123    c-0.0173,0.0516-0.0331,0.1031-0.0504,0.1544c-0.1141,0.3398-0.2364,0.6769-0.3553,1.0154    c-0.6384,0.019-1.2818,0.0081-1.9657-0.0117c0.5308,0.3238,1.13,0.529,1.7472,0.6359c-0.1436,0.3979-0.2937,0.7933-0.4436,1.1888    c-0.2282-0.0152-0.4571-0.0356-0.6872-0.0638c-0.4167-0.0375-0.8266-0.1243-1.2617-0.1905    c0.5095,0.3849,1.1043,0.6612,1.731,0.8311c-0.0335,0.0866-0.0644,0.1737-0.0982,0.26c-0.1229,0.3121-0.2476,0.6234-0.372,0.9347    c-0.1843-0.0296-0.3686-0.0611-0.5527-0.1015c-0.4516-0.0825-0.8891-0.2258-1.3534-0.3539    c0.4867,0.4321,1.0701,0.7605,1.6947,0.9893c-0.1584,0.4009-0.3145,0.8028-0.4631,1.2091    c-0.1467-0.0364-0.2938-0.0692-0.4393-0.1137c-0.485-0.1281-0.9479-0.3265-1.4377-0.5143c0.3702,0.3634,0.79,0.6899,1.2573,0.941    c0.1406,0.0809,0.2868,0.1512,0.4354,0.2169c-0.0521,0.1509-0.1069,0.3007-0.1562,0.4533    c0.0906-0.1346,0.1711-0.2744,0.2567-0.4115c0.3086,0.1284,0.629,0.2318,0.955,0.3143c0.1295,0.0334,0.2631,0.0513,0.3947,0.0768    c-0.1342,0.2597-0.2733,0.5162-0.4173,0.7705c-0.2208-0.0144-0.4414-0.0328-0.661-0.0624    c-0.4913-0.0622-0.9688-0.1851-1.4489-0.3219c-0.4854-0.1322-0.94-0.3442-1.4205-0.5616    c0.3496,0.3851,0.7664,0.7306,1.2361,0.9866c0.4675,0.2578,0.9734,0.4568,1.4944,0.5822    c0.1264,0.0323,0.2554,0.0537,0.3832,0.0812c-0.1646,0.2644-0.3341,0.5255-0.5088,0.783    c-0.1826-0.0185-0.3654-0.0358-0.5463-0.0649c-0.9892-0.1683-1.9541-0.4139-2.8634-0.9527    c0.3144,0.4253,0.7475,0.7654,1.2133,1.0401c0.4708,0.2692,0.9831,0.4497,1.5005,0.5958    c0.0751,0.0209,0.1517,0.0342,0.2272,0.0535c-0.1942,0.269-0.3935,0.536-0.597,0.8015c-0.0965-0.0147-0.194-0.0266-0.29-0.0429    c-0.5031-0.0877-0.9976-0.2057-1.4798-0.3591c-0.4824-0.1539-0.9563-0.3447-1.379-0.6734    c0.2629,0.4733,0.721,0.8202,1.1884,1.0957c0.4745,0.2768,0.9887,0.4674,1.5072,0.6169c0.5185,0.1531,1.0442,0.2812,1.5762,0.3575    c-0.2715,0.2595-0.5394,0.4942-0.7963,0.7043c-0.4792-0.0687-0.958-0.1433-1.4307-0.2315    c-0.509-0.1067-1.0103-0.2329-1.503-0.3859c-0.3097-0.1012-0.6136-0.2207-0.8924-0.3898    C53.3696,45.8414,53.1995,45.1846,53.1167,44.6586z"></path>
		<path class="st1" d="M47.036,17.4659c-0.0592-0.0364-0.1194-0.0738-0.1722-0.1118c-0.1437-0.1031-0.2734-0.2182-0.3836-0.3401    c-0.1719-0.1976-0.2737-0.4071-0.3088-0.6251c0.214-0.2155,0.4882-0.4381,0.7595-0.6191c0.3404-0.228,0.7042-0.4275,1.0865-0.589    c0.3586-0.1436,0.7266-0.2733,1.1076-0.3591c0.1361,0.0033,0.2834,0.0081,0.4372,0.0141    c-0.0652,0.0274-0.1318,0.0521-0.1963,0.0809c-0.3505,0.1599-0.7599,0.3235-0.9686,0.7211    c0.4159-0.0703,0.7549-0.1612,1.1299-0.2676c0.3683-0.0961,0.7401-0.1715,1.1137-0.2239c0.3694-0.0592,0.7398-0.098,1.1101-0.1213    c0.2129,0.0318,0.4208,0.0673,0.6165,0.1094c-0.0057,0.009-0.0127,0.0171-0.0185,0.0261    c-0.1694,0.0095-0.3389,0.0233-0.5106,0.0423c-0.641,0.0765-1.2762,0.2171-1.8807,0.4451    c-0.6023,0.228-1.1916,0.5037-1.7227,0.8672C47.8004,16.7893,47.4117,17.1212,47.036,17.4659z"></path>
		<path class="st1" d="M47.8134,11.2972c-0.2817-0.5306-0.1364-0.9445,0.0232-1.1891c0.5331,0.2687,1.6131,0.7277,3.0887,0.9993    c-0.0918,0.0195-0.168,0.0586-0.2448,0.0972l-0.4164,0.2049c-0.1631,0.0888-0.323,0.1818-0.4794,0.279    c-0.1363-0.0152-0.2751-0.032-0.4172-0.0505c0.0707-0.0836,0.1444-0.1609,0.1407-0.3743    c-0.2006-0.1029-0.3127-0.0505-0.4282-0.0073c-0.1168,0.0426-0.2331,0.0893-0.3487,0.1398    c-0.0706,0.0353-0.1382,0.0765-0.2067,0.1164c-0.2233-0.0372-0.4516-0.0787-0.6843-0.1243    C47.831,11.358,47.8288,11.3265,47.8134,11.2972z"></path>
		<path class="st1" d="M61.1364,6.9006c0.5549-0.2068,0.8227-0.1846,1.0556-0.0874c0.1136,0.0475,0.1944,0.1042,0.252,0.1528    c-0.2622,0.5065-0.4749,1.1489-0.5334,1.5536c-0.0304,0.2103-0.1114,0.488-0.1973,0.7819    c-0.2118,0.7255-0.4436,1.5365-0.1889,2.1868c-0.2519,0.1433-0.6895,0.2964-1.0489-0.0806    c-0.1467-0.1539-0.2337-0.3281-0.285-0.5176c0.0462-0.019,0.0903-0.0358,0.1378-0.0551c0.0708-0.0328,0.1439-0.0627,0.219-0.0901    c0.0759-0.0233,0.1498-0.0445,0.2352-0.181c-0.0767-0.1425-0.1651-0.1631-0.2513-0.1794    c-0.0869-0.0198-0.1756-0.0364-0.2657-0.0491c-0.0418-0.0043-0.0839-0.0019-0.1259-0.0033c0.0162-0.3197,0.088-0.672,0.1802-1.058    c0.0348-0.1455,0.0674-0.2823,0.0918-0.4066C60.7618,7.0949,61.1344,6.9017,61.1364,6.9006z"></path>
		<path class="st1" d="M66.3814,7.6641c-0.0042-0.0174-0.0075-0.035-0.0049-0.0263L66.3814,7.6641z"></path>
		<path class="st1" d="M56.3678,13.2126c-0.3475,0.0206-0.6174,0.0377-0.7837,0.0486c-0.0518-0.3138-0.089-0.6186-0.1037-0.8992    c0.1767,0.3509,0.4941,0.6384,0.8956,0.8009L56.3678,13.2126z"></path>
		<path class="st1" d="M58.3464,12.9132c0.0072,0.0022,0.0135,0.006,0.0208,0.0081l-0.0237-0.0033    C58.3447,12.9167,58.3451,12.9148,58.3464,12.9132z"></path>
		<path class="st1" d="M65.3108,12.3595c-0.0453,0.1734-0.0752,0.3689-0.0565,0.5849c-0.1128-0.0022-0.2272,0.0035-0.3403,0.0054    c-1.4628-0.0491-3.6344,0.0179-5.5368,0.104l-0.5414-0.0711c0.1588-0.0043,0.3222-0.028,0.4835-0.0771    c0.2959-0.0904,0.5476-0.253,0.7515-0.4617c0.2973,0.1892,0.6068,0.2692,0.9045,0.2692c0.533,0,1.017-0.2348,1.3241-0.4609    c0.0805,0.0318,0.1632,0.0613,0.2538,0.0828c0.1926,0.0456,0.3702,0.0665,0.5344,0.0665c0.5615,0,0.9631-0.2454,1.2558-0.5797    l1.1308,0.0955C65.4111,12.0564,65.3528,12.2002,65.3108,12.3595z"></path>
		<path class="st1" d="M64.8102,7.2814c-0.1047,0.2046-0.1165,0.2779-0.1664,0.4125c-0.1622,0.4875-0.281,1.001-0.2892,1.5433    c-0.0027,0.1137,0.0033,0.2296,0.0121,0.3458c-0.1525,0.0608-0.2784,0.1818-0.3225,0.3526    c-0.3424,1.3188-0.6874,1.4933-1.2428,1.362c-0.2022-0.048-0.2464-0.1238-0.2632-0.1523    c-0.078-0.1333-0.0697-0.3691-0.0242-0.6357c0.0934-0.0062,0.1857-0.0052,0.2805-0.0182l0.2837-0.0505    c0.0952-0.013,0.1897-0.0269,0.303-0.158c-0.0759-0.1452-0.1706-0.1734-0.2646-0.2008L62.8327,9.989    c-0.0623-0.0179-0.1265-0.0247-0.1894-0.0396c0.0332-0.1211,0.0674-0.2402,0.0995-0.3501    c0.0965-0.3311,0.1879-0.6438,0.2288-0.9282c0.0806-0.5578,0.481-1.3994,0.6135-1.5321c0.3619-0.2703,0.7542-0.4142,0.9525-0.3501    c0.1143,0.0372,0.3022,0.1219,0.4955,0.2152C64.9457,7.0868,64.8668,7.1788,64.8102,7.2814z"></path>
		<path class="st1" d="M59.3598,8.6621c-0.022,0.1116-0.0515,0.2345-0.0828,0.3653c-0.171,0.7157-0.4063,1.7373,0.0742,2.6259    c-0.1013,0.1289-0.2343,0.1973-0.3394,0.2304c-0.1889,0.0589-0.3341,0.0304-0.3655,0.0133    c-0.1952-0.1107-0.3313-0.3222-0.4273-0.5583c0.0729-0.0461,0.1429-0.0926,0.2238-0.1368    c0.0634-0.0388,0.1311-0.0736,0.2025-0.1034c0.0729-0.0263,0.1422-0.0486,0.2306-0.1835    c-0.0756-0.1441-0.1708-0.1637-0.2616-0.1761c-0.0922-0.016-0.1871-0.0255-0.2838-0.028    c-0.0903,0.0011-0.1812,0.0125-0.2707,0.0315c-0.0163-0.1088-0.0274-0.2122-0.0311-0.2986    c-0.0192-0.4565,0.006-1.4838,0.0318-1.9903c0.0263-0.5184,0.2963-0.7648,0.9964-0.91c0.0792-0.0141,0.3197,0.1211,0.4953,0.2953    C59.4848,8.0899,59.4199,8.3578,59.3598,8.6621z"></path>
		<path class="st1" d="M56.9577,10.4892c0.0125,0.2893,0.0912,1.0696,0.5034,1.6996c-0.3229,0.0961-0.5988,0.0532-0.7917-0.0646    l-0.2553-0.4622c0.0377-0.0212,0.0769-0.0339,0.1143-0.0581l0.1712-0.1216c0.059-0.0375,0.117-0.0752,0.1544-0.2302    c-0.0937-0.1183-0.1669-0.1197-0.2391-0.1208l-0.2224-0.0128c-0.0746-0.0003-0.1469,0.0138-0.2206,0.0206    c-0.1148-0.4248-0.1961-0.8854-0.2387-1.2414c-0.0243-0.2055-0.1038-1.2393,0.7032-1.4119    c0.0621,0.0016,0.2104,0.0708,0.3429,0.1542C56.9565,9.2103,56.9396,10.0601,56.9577,10.4892z"></path>
		<path class="st1" d="M52.4413,13.3266l0.0984-0.4742c0.0537-0.0005,0.1079-0.0014,0.1535-0.0022    c0.0124,0.1607,0.0298,0.3254,0.0526,0.4932c-0.1092,0.0369-0.2223,0.0665-0.3346,0.0977    C52.4209,13.4028,52.4318,13.3651,52.4413,13.3266z"></path>
		<path class="st1" d="M51.3514,11.8151c-0.1685-0.0079-0.3507-0.0193-0.5398-0.0326l0.1678-0.1998    c0.0937-0.1102,0.1914-0.2155,0.2032-0.4294c0.3008,0.0491,0.6152,0.0896,0.946,0.1189    C51.91,11.4525,51.62,11.6471,51.3514,11.8151z"></path>
		<path class="st1" d="M51.9609,12.8505l-0.144,0.2212c-0.1113,0.1862-0.2172,0.3743-0.3173,0.5648    c-0.2059,0.0318-0.4134,0.0562-0.6223,0.0746l0.1278-0.3447c0.0455-0.1197,0.102-0.2321,0.0138-0.4435    c-0.23-0.0068-0.3154,0.0855-0.4118,0.1704l-0.2916,0.253c-0.1381,0.1325-0.2696,0.2695-0.3918,0.4131    c-0.155,0.0014-0.3092,0.0003-0.4621-0.0033l0.0777-0.159c0.0487-0.0969,0.1063-0.1835,0.0429-0.3973    c-0.2072-0.0611-0.2934,0.0052-0.3884,0.0611l-0.2892,0.1677c-0.1303,0.0866-0.2561,0.1791-0.3754,0.2777    c-1.2831-0.1031-2.356-0.3292-2.7873-0.4302c-0.1546-0.3056-0.1983-0.5724-0.1297-0.7952    c0.0715-0.2323,0.2558-0.393,0.3847-0.4812C48.4875,12.6793,50.7021,12.8291,51.9609,12.8505z"></path>
		<path class="st1" d="M106.947,12.0971c-2.1815,1.2925-6.0101,1.2634-6.9049,1.2363c-0.1367-0.0407-0.2724-0.0839-0.4094-0.1235    c-1.4937-0.4362-2.9959-0.8514-4.5134-1.2053c2.0624-0.2497,4.5145-0.8645,6.5404-2.2734    C103.4421,10.2726,105.2444,11.0358,106.947,12.0971z"></path>
		<path class="st1" d="M97.1079,13.6914c0.0295,0.0212,2.5938,1.8945,3.2409,4.2495c-0.8095-0.6004-1.627-1.1899-2.4623-1.755    c-1.4242-0.9592-2.884-1.8698-4.3867-2.7068c-0.5965-0.3314-1.2039-0.6433-1.8167-0.9442    c0.6257,0.117,1.2519,0.2299,1.8756,0.3594c1.1833,0.2416,2.3625,0.5065,3.5387,0.786    C97.1016,13.6835,97.1035,13.6884,97.1079,13.6914z"></path>
		<path class="st1" d="M103.86,22.115c-0.9545-0.1268-1.9098-0.241-2.8723-0.3276c-1.1438-0.0961-2.2892-0.1791-3.4538-0.1713    c-0.5786-0.9356-1.5706-1.8643-2.5758-2.6533c1.5375,0.5605,3.075,1.1359,4.6111,1.7151l0.0054,0.0019    c0.0918,0.0347,0.1985,0.0016,0.2529-0.0844c0.062-0.098,0.0325-0.2274-0.066-0.2891c-1.452-0.9098-2.9723-1.6801-4.5251-2.3846    c-1.5528-0.7046-3.1512-1.3031-4.7619-1.866c-0.1836-0.063-0.3708-0.1156-0.5552-0.177c1.4823-0.1037,3.0963-0.3802,4.1182-1.0382    c1.1084,0.6964,2.2085,1.4065,3.2743,2.1691c1.3795,0.9831,2.7436,1.9892,4.0688,3.0458    C102.2207,20.724,103.0461,21.415,103.86,22.115z"></path>
		<path class="st1" d="M81.2102,6.1162c1.6042-0.0736,3.0988-0.3276,4.6251-1.2903c0.0126,1.0406-0.7699,1.8755-0.7893,1.8958    c-0.0616,0.0632-0.0923,0.1414-0.1083,0.222c-0.1308,0.0537-0.2595,0.1135-0.3904,0.1664    c-1.5815,0.6351-3.1893,1.2018-4.815,1.7018c-0.6961,0.2185-1.3985,0.4134-2.1039,0.5952    C79.1357,8.5722,80.5366,7.4814,81.2102,6.1162z"></path>
		<path class="st1" d="M81.8419,9.1134c0.0471-0.0027,4.3213-0.2367,6.7121,0.3781c-0.938,1.2751-2.1961,2.1925-3.6253,2.8365    c-0.4847-0.3355-1.047-0.5309-1.584-0.7369c-0.3142-0.1303-0.6425-0.1932-0.9635-0.2929    c-0.3216-0.0993-0.6472-0.1704-0.974-0.2342c-1.3049-0.2801-2.6252-0.4131-3.9419-0.4902    c-0.135-0.0081-0.2701-0.013-0.4052-0.0198c0.9925-0.2687,1.9768-0.5632,2.9463-0.8992c0.5453-0.1854,1.0834-0.3892,1.6229-0.5892    C81.6939,9.0958,81.7639,9.1164,81.8419,9.1134z"></path>
		<path class="st1" d="M91.6677,17.7867c0.9164,0.5466,3.5475,2.2017,4.821,3.8682c-0.1072,0.0065-0.2128,0.006-0.3205,0.0144    c-1.5075,0.1436-3.0434-0.01-4.5786-0.2448c-0.1576-0.0244-0.3146-0.0543-0.472-0.0809c-1.928-2.7074-4.5375-4.5844-6.7168-5.8004    c0.2851,0.0738,0.5705,0.146,0.8538,0.228c1.6186,0.4419,3.2248,0.932,4.8159,1.4702    C90.6053,17.4154,91.1361,17.6024,91.6677,17.7867z"></path>
		<path class="st1" d="M70.9145,13.1567c0.0042-0.1278,0.0032-0.2527-0.0001-0.377c0.7343-0.0269,1.4692-0.0472,2.2056-0.0508    c0.6371-0.0095,1.2751-0.0065,1.9133,0.009c0.6387,0.0163,1.2738,0.0581,1.9317-0.0613c-0.6154-0.263-1.2566-0.3406-1.8959-0.4185    c-0.6398-0.0793-1.2817-0.146-1.9254-0.2003c-0.7652-0.0567-1.5329-0.0912-2.3011-0.1026    c-0.0091-0.0575-0.021-0.1126-0.0316-0.1691c0.903-0.1072,1.8013-0.238,2.6921-0.4028l0.0355-0.0005    c1.2942-0.0092,2.5876-0.0079,3.8745,0.07c1.2868,0.07,2.5697,0.2065,3.8188,0.4609c0.3148,0.0554,0.6273,0.1178,0.9308,0.2063    c0.3027,0.0888,0.6212,0.1428,0.9116,0.2592c0.2928,0.1102,0.5945,0.2057,0.8811,0.3265c0.0041,0.0019,0.008,0.0041,0.0121,0.006    C79.323,14.3593,73.4072,13.5993,70.9145,13.1567z"></path>
		<path class="st1" d="M87.1203,15.0297c-0.5185-0.1438-1.0356-0.2929-1.5579-0.4234l-0.7316-0.1799    c0.5929-0.2342,1.1582-0.5094,1.7003-0.8178c0.2961,0.0518,0.5927,0.1012,0.8903,0.1409c0.3709,0.0426,0.742,0.0784,1.1131,0.1075    c0.3704,0.0301,0.7414,0.0668,1.1315-0.0774c-0.3398-0.2372-0.6969-0.3072-1.0524-0.3971    c-0.3549-0.0909-0.7075-0.1878-1.0576-0.2912c-0.0452-0.0125-0.0896-0.0266-0.1347-0.0394    c0.4665-0.3184,0.9109-0.6663,1.3322-1.0444c0.0997,0.0171,0.1992,0.0347,0.2989,0.0518c1.3671,0.6666,2.7066,1.3861,4.0121,2.167    c0.0404,0.025,0.0801,0.051,0.1205,0.076C91.6124,15.0465,88.7309,15.1016,87.1203,15.0297z"></path>
		<path class="st1" d="M79.8001,15.5573c0.2419,0.1034,0.4828,0.2101,0.7203,0.3249c0.5456,0.2565,1.0781,0.545,1.5938,0.8636    c0.5163,0.3205,1.0013,0.6766,1.5893,0.9369c-0.3344-0.5507-0.8193-0.9521-1.313-1.3316    c-0.4401-0.3395-0.9012-0.6536-1.376-0.9486c0.2741-0.0413,0.5473-0.0877,0.8201-0.1392    c2.0801,0.9193,5.5039,2.7755,7.9872,5.8376c-0.9346-0.1924-1.8633-0.4172-2.7786-0.6821    c-1.4795-0.4334-2.9563-0.9377-4.2798-1.6464c-0.6756-0.3868-1.3112-0.8569-2.0113-1.3826    c-0.7424-0.5575-1.5297-1.1475-2.4759-1.7189C78.7779,15.6469,79.2876,15.6092,79.8001,15.5573z"></path>
		<path class="st1" d="M91.4421,11.2527c-0.3685-0.063-0.7373-0.1232-1.107-0.1789c0.278-0.3053,0.5216-0.6186,0.7326-0.9209    c0.6483-0.01,1.2963-0.0328,1.9433-0.0668c0.6229-0.0391,1.2449-0.086,1.8658-0.1406c0.6206-0.0537,1.2425-0.1018,1.8502-0.3319    c-0.6309-0.1539-1.2485-0.1409-1.8681-0.1487c-0.6192-0.009-1.2379-0.0258-1.8559-0.0502    c-0.4783-0.0138-0.9559-0.0339-1.4335-0.0537c0.1785-0.3121,0.3097-0.5776,0.3973-0.767    c2.1918-0.1314,5.2961-0.0087,8.5581,0.8208C97.2323,11.3385,92.9253,11.3241,91.4421,11.2527z"></path>
		<path class="st1" d="M89.1667,8.5378c-0.0334,0.0624-0.0733,0.1181-0.108,0.1789c-1.4526-0.434-3.6019-0.5306-5.191-0.5322    c0.3215-0.1338,0.6472-0.2581,0.9662-0.3973c1.5806-0.6935,3.1296-1.436,4.6468-2.2777c0.1376-0.0765,0.1905-0.2489,0.1173-0.3889    c-0.0745-0.143-0.2514-0.1987-0.3949-0.1243L89.195,5.0001c-0.9233,0.4771-1.874,0.9152-2.833,1.3364    c0.2673-0.5442,0.473-1.2689,0.301-2.0733c1.9319-1.2566,4.683-0.9293,6.7611-0.0022    C92.3375,4.9402,90.3035,6.4158,89.1667,8.5378z"></path>
		<path class="st1" d="M80.174,6.145c-1.4554,2.2294-5.2777,3.6356-7.1827,4.2189c-0.8333,0.1205-1.6691,0.2133-2.5053,0.2844    c-0.0421-0.1083-0.0855-0.2141-0.1317-0.3165c0.5471-0.2891,1.0986-0.5713,1.6613-0.8346    c0.4707-0.2274,0.9485-0.4424,1.4327-0.6443c0.4852-0.2014,0.9772-0.3759,1.4305-0.7065c-0.5621-0.0385-1.0774,0.1067-1.59,0.2524    c-0.5136,0.1449-1.024,0.304-1.5304,0.4774c-0.6061,0.2158-1.2043,0.4571-1.7918,0.7222    c-0.0608-0.0983-0.1221-0.1951-0.1846-0.2847c1.21-1.0873,4.0969-3.0843,9.0647-3.1544l0.714-0.0076    C79.7677,6.1499,79.9715,6.1477,80.174,6.145z"></path>
		<path class="st1" d="M59.8767,38.1835c0.0677,0.0119,0.134,0.0309,0.2021,0.0404c0.3365,0.0543,0.6786,0.0774,1.0214,0.079    c-0.134,0.3613-0.2782,0.7184-0.4226,1.0753c-0.3269,0.0147-0.6553,0.0206-0.9843-0.0065    c-0.1114-0.0095-0.223-0.0261-0.3346-0.0388c0.1256-0.2687,0.2488-0.5382,0.3699-0.8088    C59.7793,38.4112,59.8265,38.2966,59.8767,38.1835z"></path>
		<path class="st1" d="M62.6379,37.2662l-0.3618,0.0842c0,0,0.2665-0.7368,0.3871-1.0842c0.0312-0.0071,0.0625-0.0141,0.0941-0.022    C62.7394,36.4225,62.6379,37.2662,62.6379,37.2662z"></path>
		<path class="st1" d="M61.6782,41.1492c-0.3179,0.057-0.659,0.0974-0.9869,0.1156c-0.0522,0.0019-0.105,0-0.1574,0.0014    c0.1848-0.3496,0.3646-0.7019,0.5358-1.058c0.3143-0.0043,0.6188-0.029,0.9304-0.082    C61.9064,40.4571,61.799,40.8002,61.6782,41.1492z"></path>
		<path class="st1" d="M61.351,37.4618c-0.3921,0.0388-0.7894,0.0714-1.1888,0.0649c0.1641-0.3786,0.3272-0.7575,0.4855-1.1389    c0.3696,0.0339,0.7429,0.0464,1.1149,0.0152c-0.1147,0.3528-0.2401,0.7013-0.3622,1.0515    C61.3841,37.4563,61.3673,37.4599,61.351,37.4618z"></path>
		<path class="st1" d="M61.9175,38.2665c0.1696-0.019,0.3393-0.044,0.5129-0.0822c-0.0454,0.2969-0.107,0.6272-0.1877,0.9863    c-0.239,0.0578-0.5037,0.1023-0.775,0.1387C61.6202,38.9624,61.776,38.6174,61.9175,38.2665z"></path>
		<path class="st1" d="M62.6553,30.8119c0.0034,0.0486,0.0068,0.0977,0.0102,0.1463c0.0146,0.2046,0.0284,0.4068,0.0424,0.6093    c-0.1016,0.0282-0.2019,0.0554-0.3117,0.0828C62.4853,31.3718,62.5716,31.0922,62.6553,30.8119z"></path>
		<path class="st1" d="M62.2521,27.1844c0.051-0.1311,0.1003-0.2627,0.1511-0.3938c0.0041-0.0005,0.0081-0.0003,0.0122-0.0008    c0.0242-0.0038,0.0495-0.009,0.0741-0.013c-0.0049,0.3363-0.002,0.6728,0.0053,1.0091c-0.1054,0.0353-0.2202,0.0708-0.3245,0.0991    c-0.0691,0.0168-0.1441,0.0304-0.2148,0.0472L62.2521,27.1844z"></path>
		<path class="st1" d="M61.3104,29.5593l0.3227-0.814c0.2317,0.0084,0.4662,0.0079,0.7022-0.0304    c0.0006-0.0003,0.0012-0.0003,0.0018-0.0005c-0.0834,0.368-0.1713,0.7353-0.2649,1.1017    c-0.2539,0.0559-0.5121,0.1156-0.7765,0.1607l-0.1592,0.0231C61.1948,29.853,61.253,29.7064,61.3104,29.5593z"></path>
		<path class="st1" d="M62.0894,32.5779c0.0312-0.0035,0.0626-0.0033,0.0938-0.0073c0.1974-0.0231,0.3885-0.0575,0.5823-0.1031    c0.0094,0.159,0.0182,0.3181,0.0262,0.4758c-0.0534,0.1924-0.1095,0.384-0.1637,0.5759c-0.2122,0.0502-0.4315,0.0999-0.648,0.1457    c-0.0975,0.0176-0.1957,0.0369-0.2937,0.0556C61.8246,33.3412,61.9588,32.9604,62.0894,32.5779z"></path>
		<path class="st1" d="M61.2509,34.9013c0.0459-0.1194,0.0876-0.2407,0.1329-0.3604c0.2423-0.0014,0.4848-0.01,0.7261-0.0396    c0.0844-0.009,0.1662-0.0244,0.249-0.0358c-0.101,0.3447-0.2092,0.6867-0.3149,1.0295c-0.1249,0.0233-0.2503,0.0472-0.3735,0.0673    c-0.2392,0.0326-0.4807,0.0627-0.7233,0.0874C61.0479,35.3998,61.1528,35.152,61.2509,34.9013z"></path>
		<path class="st1" d="M59.5944,40.0641c0.2487,0.0529,0.5011,0.0915,0.7554,0.1159c-0.1565,0.3648-0.3203,0.7258-0.4914,1.0835    c-0.2068-0.0081-0.4137-0.0198-0.6199-0.048c-0.2582-0.0361-0.5163-0.0833-0.7735-0.14c0.2148-0.3754,0.4134-0.7591,0.6043-1.1465    C59.2429,39.9791,59.4165,40.0302,59.5944,40.0641z"></path>
		<path class="st1" d="M60.0922,42.0696c0.2049,0.0209,0.4102,0.0413,0.6167,0.0413c0.2073,0.0019,0.4108-0.0071,0.6145-0.0236    c-0.0869,0.2114-0.1795,0.4229-0.2767,0.6335c-0.3739,0.0345-0.7648,0.057-1.1479,0.0603    c-0.0745-0.0008-0.149-0.0057-0.2235-0.0073C59.8187,42.5413,59.9568,42.3062,60.0922,42.0696z"></path>
		<path class="st1" d="M59.8722,43.6267c0.2396,0.0147,0.4754,0.0171,0.7128,0.0119c-0.0922,0.1672-0.1878,0.3325-0.2872,0.4951    c-0.0424,0.0695-0.0877,0.133-0.1309,0.2008c-0.3494,0-0.7047-0.0057-1.0552-0.0204c-0.1529-0.01-0.306-0.022-0.4591-0.0328    c0.1812-0.2391,0.3535-0.4839,0.5205-0.7312C59.405,43.5851,59.6379,43.6147,59.8722,43.6267z"></path>
		<path class="st1" d="M59.0424,45.1577c0.1749,0.0195,0.3485,0.0288,0.5224,0.0404c-0.195,0.2549-0.3936,0.4937-0.5942,0.7198    c-0.55-0.0413-1.1026-0.0974-1.6496-0.1745c0.2625-0.2345,0.5125-0.4823,0.7465-0.7461    C58.3903,45.0657,58.715,45.1232,59.0424,45.1577z"></path>
		<path class="st1" d="M54.2938,47.2128c0.4282,0.2445,0.8845,0.4229,1.345,0.5781c-0.4773-0.079-0.8692-0.1468-1.136-0.1968    c-0.2478-0.0464-0.4826-0.3238-0.6883-0.7103C53.9694,47.0049,54.1308,47.117,54.2938,47.2128z"></path>
		<path class="st1" d="M70.5142,15.208c0.3511,0.0592,0.9787,0.1561,1.8062,0.2497c0.3,0.1938,0.601,0.387,0.915,0.5632    c0.4053,0.2198,0.8215,0.4226,1.2494,0.5977c0.4251,0.1748,0.8684,0.3376,1.359,0.2893c-0.3697-0.3176-0.762-0.4986-1.145-0.7209    c-0.3095-0.1808-0.6069-0.3813-0.8987-0.5901c0.8133,0.0619,1.7248,0.1056,2.6947,0.1105c1.5283,0.7461,2.6483,1.578,3.6741,2.348    c-0.8202-0.0046-1.5758,0.1107-2.3053,0.1485c-1.5092,0.1116-2.9687-0.1892-4.3154-0.8786    c-0.6736-0.3344-1.3184-0.741-1.9395-1.1869c-0.3778-0.2749-0.7493-0.5616-1.1238-0.8471    C70.4951,15.2634,70.5043,15.236,70.5142,15.208z"></path>
		<path class="st1" d="M73.7789,19.6217c0.5439,0.1691,1.1123,0.285,1.6732,0.361c0.5002,0.4272,1.0252,0.8246,1.5722,1.1858    c0.5,0.3224,1.0148,0.6191,1.5419,0.8886c0.5254,0.2701,1.0632,0.5276,1.6759,0.5939c-0.4496-0.4153-0.9494-0.6932-1.4321-1.0091    c-0.4809-0.3165-0.9445-0.656-1.3888-1.0167c-0.2182-0.1732-0.4187-0.3645-0.6283-0.5469    c0.4295,0.0095,0.8529,0.0079,1.2718-0.0065c0.5273,0.3933,1.0826,0.7494,1.6654,1.0509c0.4717,0.2527,0.958,0.4679,1.4492,0.6652    c0.0162,0.0117,0.0274,0.0277,0.0456,0.0375c0.0358,0.019,3.1986,1.7254,4.9147,3.9162    c-2.5815-0.5035-9.7281-2.9807-12.9291-6.3239C73.3978,19.4934,73.5864,19.5645,73.7789,19.6217z"></path>
		<path class="st1" d="M87.4021,26.0198c-0.6951-1.1752-1.817-2.2397-2.8907-3.0789c0.5752,0.1916,1.1437,0.3908,1.6976,0.6218    c1.0397,0.434,2.0304,0.9841,2.9073,1.7023c0.0614,0.0499,0.1526,0.0459,0.2086-0.0119c0.059-0.0608,0.0572-0.1577-0.004-0.2166    c-0.84-0.8056-1.822-1.4781-2.8744-1.9873c-1.0482-0.5206-2.1416-0.9179-3.2075-1.3261c-0.4962-0.1892-0.984-0.3887-1.4627-0.6009    c-0.0672-0.0372-0.1191-0.0654-0.1338-0.0733c-0.0278-0.0149-0.0577-0.0176-0.0868-0.0261    c-0.4743-0.216-0.9393-0.4451-1.39-0.6954c-0.1819-0.1029-0.3594-0.212-0.5368-0.3214c0.5626-0.0225,1.0914-0.0263,1.5884,0.067    c0.3436,0.0654,0.6823,0.1512,1.0105,0.2969l1.1121,0.5008c0.7592,0.3371,1.5363,0.6582,2.329,0.9421    c1.0092,0.3656,2.0557,0.6492,3.119,0.8427c1.6009,1.439,4.0136,4.1,4.494,7.421C91.9869,28.8873,89.4495,26.726,87.4021,26.0198z    "></path>
		<path class="st1" d="M92.0867,24.993c-0.2525-0.3596-0.5141-0.6994-0.7788-1.0183c0.7005,0.0958,1.4007,0.2492,2.0946,0.4524    c0.5248,0.1468,1.0465,0.3189,1.5659,0.5043c0.5191,0.1862,1.03,0.3976,1.6151,0.4511c-0.4246-0.4036-0.9242-0.6479-1.4259-0.8938    c-0.5014-0.2467-1.011-0.4828-1.5348-0.6964c-0.204-0.0806-0.4129-0.1539-0.6222-0.2261c0.8321,0.1061,1.7188,0.1751,2.5893,0.171    c0.042,0.0149,0.0854,0.028,0.1272,0.0432c0.7358,0.2714,1.4578,0.5811,2.1616,0.9285c0.7008,0.3526,1.3753,0.7529,2.0207,1.198    c0.6366,0.4557,1.228,0.9703,1.7595,1.5476l0.0058,0.0062c0.0664,0.0717,0.1778,0.0831,0.2578,0.0233    c0.0854-0.0638,0.1028-0.1843,0.0388-0.2695c-0.4924-0.6538-1.0585-1.2531-1.6767-1.7935    c-0.6259-0.5295-1.2894-1.0156-1.983-1.454c-0.1345-0.0836-0.2739-0.1593-0.4101-0.2399    c0.7253,0.0255,1.3413,0.0831,1.8599,0.1582c0.2765,0.1596,0.5513,0.3224,0.8188,0.4991    c0.3203,0.2128,0.6213,0.4448,1.0378,0.5637c-0.1314-0.3387-0.3583-0.5825-0.5986-0.8099    c0.8343,0.2264,1.1662,0.4581,1.1671,0.4581l0.0053-0.006c1.686,2.1227,1.5857,4.5291,1.4156,5.6383    C97.8836,26.4608,92.2706,25.0386,92.0867,24.993z"></path>
		<path class="st1" d="M102.1813,19.3321c-0.0463-0.0364-0.0911-0.0741-0.1375-0.1105c-0.2224-0.1726-0.4501-0.3385-0.6739-0.5094    c-0.1151-1.8869-1.3803-3.5322-2.4128-4.572c0.1282,0.0337,0.2576,0.0613,0.3856,0.0955c0.9979,0.263,1.9916,0.5436,2.9815,0.8376    c0.0238,0.0274,0.0446,0.057,0.0759,0.0784c0.024,0.0166,2.4126,1.6768,3.2011,3.3653c0.0747,0.1604,0.2346,0.2549,0.4015,0.2549    c0.0625,0,0.126-0.0133,0.1863-0.041c0.2215-0.1026,0.3177-0.3645,0.2146-0.5852c-0.4116-0.8813-1.1672-1.7243-1.8721-2.386    c0.1703,0.0546,0.3423,0.1037,0.5124,0.1593c1.8791,0.6243,3.762,1.2751,5.5821,2.0356l0.0082,0.0035    c0.1356,0.0562,0.2933-0.0022,0.358-0.1354c0.0668-0.1379,0.0088-0.3037-0.1298-0.3702    c-1.8131-0.8707-3.6543-1.6437-5.5325-2.3401c-0.9041-0.339-1.8141-0.6631-2.7296-0.9711    c1.6271-0.1409,3.6194-0.5051,5.0026-1.4051c0.0518-0.0337,0.0937-0.0765,0.1259-0.1246c0.905,0.6262,1.7757,1.3411,2.5916,2.1596    c1.7076,1.7126,4.9157,3.6584,6.6342,4.6436C114.3355,19.742,108.1247,20.3117,102.1813,19.3321z"></path>
	</g>
</g>
</svg>